<?xml version="1.0" encoding="UTF-8" standalone="no"?>
<!DOCTYPE svg PUBLIC "-//W3C//DTD SVG 1.1//EN"
 "http://www.w3.org/Graphics/SVG/1.1/DTD/svg11.dtd">
<!-- Generated by graphviz version 2.43.0 (0)
 -->
<!-- Title: IN_LookupUp Pages: 1 -->
<svg width="246pt" height="73pt"
 viewBox="0.00 0.00 246.00 73.00" xmlns="http://www.w3.org/2000/svg" xmlns:xlink="http://www.w3.org/1999/xlink">
<g id="page0,1_graph0" class="graph" transform="scale(1 1) rotate(0) translate(4 69)">
<title>IN_LookupUp</title>
<!-- Node1 -->
<g id="Node000001" class="node">
<title>Node1</title>
<g id="a_Node000001"><a xlink:title=" ">
<polygon fill="#999999" stroke="#666666" points="80,-47 0,-47 0,-28 80,-28 80,-47"/>
<text text-anchor="middle" x="40" y="-35" font-family="Helvetica,sans-Serif" font-size="10.00">IN_LookupUp</text>
</a>
</g>
</g>
<!-- Node1&#45;&gt;Node1 -->
<g id="edge3_Node000001_Node000001" class="edge">
<title>Node1&#45;&gt;Node1</title>
<g id="a_edge3_Node000001_Node000001"><a xlink:title=" ">
<path fill="none" stroke="#63b8ff" d="M24.59,-47.08C17.09,-55.73 22.23,-65 40,-65 50.83,-65 56.97,-61.56 58.42,-56.91"/>
<polygon fill="#63b8ff" stroke="#63b8ff" points="61.68,-55.62 55.41,-47.08 54.99,-57.67 61.68,-55.62"/>
</a>
</g>
</g>
<!-- Node2 -->
<g id="Node000002" class="node">
<title>Node2</title>
<g id="a_Node000002"><a xlink:href="menudefs_8qc.html#a977f9318008de123876b168dfa86ad22" target="_top" xlink:title=" ">
<polygon fill="white" stroke="#666666" points="238,-47 200,-47 200,-28 238,-28 238,-47"/>
<text text-anchor="middle" x="219" y="-35" font-family="Helvetica,sans-Serif" font-size="10.00">cmd</text>
</a>
</g>
</g>
<!-- Node1&#45;&gt;Node2 -->
<g id="edge1_Node000001_Node000002" class="edge">
<title>Node1&#45;&gt;Node2</title>
<g id="a_edge1_Node000001_Node000002"><a xlink:title=" ">
<path fill="none" stroke="#63b8ff" d="M80.07,-43.46C104.25,-46.38 135.94,-48.82 164,-46.5 172.39,-45.81 181.44,-44.51 189.69,-43.12"/>
<polygon fill="#63b8ff" stroke="#63b8ff" points="190.38,-46.55 199.6,-41.34 189.14,-39.66 190.38,-46.55"/>
</a>
</g>
</g>
<!-- Node3 -->
<g id="Node000003" class="node">
<title>Node3</title>
<g id="a_Node000003"><a xlink:href="cl__input_8c.html#a9c7c3cabee34a676f9583d1fa33058ff" target="_top" xlink:title=" ">
<polygon fill="white" stroke="#666666" points="164,-19 116,-19 116,0 164,0 164,-19"/>
<text text-anchor="middle" x="140" y="-7" font-family="Helvetica,sans-Serif" font-size="10.00">KeyUp</text>
</a>
</g>
</g>
<!-- Node1&#45;&gt;Node3 -->
<g id="edge4_Node000001_Node000003" class="edge">
<title>Node1&#45;&gt;Node3</title>
<g id="a_edge4_Node000001_Node000003"><a xlink:title=" ">
<path fill="none" stroke="#63b8ff" d="M74.45,-27.94C84.68,-25.02 95.92,-21.81 106.11,-18.9"/>
<polygon fill="#63b8ff" stroke="#63b8ff" points="107.23,-22.22 115.88,-16.11 105.3,-15.49 107.23,-22.22"/>
</a>
</g>
</g>
<!-- Node2&#45;&gt;Node2 -->
<g id="edge2_Node000002_Node000002" class="edge">
<title>Node2&#45;&gt;Node2</title>
<g id="a_edge2_Node000002_Node000002"><a xlink:title=" ">
<path fill="none" stroke="#63b8ff" d="M206.98,-47.08C201.13,-55.73 205.14,-65 219,-65 227.45,-65 232.24,-61.56 233.36,-56.91"/>
<polygon fill="#63b8ff" stroke="#63b8ff" points="236.74,-56 231.02,-47.08 229.94,-57.62 236.74,-56"/>
</a>
</g>
</g>
<!-- Node3&#45;&gt;Node2 -->
<g id="edge5_Node000003_Node000002" class="edge">
<title>Node3&#45;&gt;Node2</title>
<g id="a_edge5_Node000003_Node000002"><a xlink:title=" ">
<path fill="none" stroke="#63b8ff" d="M164.1,-17.9C172.25,-20.86 181.51,-24.23 190.02,-27.32"/>
<polygon fill="#63b8ff" stroke="#63b8ff" points="188.96,-30.67 199.56,-30.79 191.35,-24.09 188.96,-30.67"/>
</a>
</g>
</g>
<!-- Node3&#45;&gt;Node3 -->
<g id="edge6_Node000003_Node000003" class="edge">
<title>Node3&#45;&gt;Node3</title>
<g id="a_edge6_Node000003_Node000003"><a xlink:title=" ">
<path fill="none" stroke="#63b8ff" d="M127.98,-19.08C122.13,-27.73 126.14,-37 140,-37 148.45,-37 153.24,-33.56 154.36,-28.91"/>
<polygon fill="#63b8ff" stroke="#63b8ff" points="157.74,-28 152.02,-19.08 150.94,-29.62 157.74,-28"/>
</a>
</g>
</g>
</g>
</svg>
