<?xml version="1.0" encoding="UTF-8" standalone="no"?>
<!DOCTYPE svg PUBLIC "-//W3C//DTD SVG 1.1//EN"
 "http://www.w3.org/Graphics/SVG/1.1/DTD/svg11.dtd">
<!-- Generated by graphviz version 2.43.0 (0)
 -->
<!-- Title: VM_CL_te_superspikequad Pages: 1 -->
<svg width="329pt" height="155pt"
 viewBox="0.00 0.00 329.00 155.00" xmlns="http://www.w3.org/2000/svg" xmlns:xlink="http://www.w3.org/1999/xlink">
<g id="page0,1_graph0" class="graph" transform="scale(1 1) rotate(0) translate(4 151)">
<title>VM_CL_te_superspikequad</title>
<!-- Node1 -->
<g id="Node000001" class="node">
<title>Node1</title>
<g id="a_Node000001"><a xlink:title=" ">
<polygon fill="#999999" stroke="#666666" points="146,-74 0,-74 0,-55 146,-55 146,-74"/>
<text text-anchor="middle" x="73" y="-62" font-family="Helvetica,sans-Serif" font-size="10.00">VM_CL_te_superspikequad</text>
</a>
</g>
</g>
<!-- Node1&#45;&gt;Node1 -->
<g id="edge7_Node000001_Node000001" class="edge">
<title>Node1&#45;&gt;Node1</title>
<g id="a_edge7_Node000001_Node000001"><a xlink:title=" ">
<path fill="none" stroke="#63b8ff" d="M45.57,-74.08C32.22,-82.73 41.36,-92 73,-92 94.26,-92 105.36,-87.82 106.31,-82.45"/>
<polygon fill="#63b8ff" stroke="#63b8ff" points="109.05,-80.26 100.43,-74.08 103.32,-84.28 109.05,-80.26"/>
</a>
</g>
</g>
<!-- Node2 -->
<g id="Node000002" class="node">
<title>Node2</title>
<g id="a_Node000002"><a xlink:href="cl__collision_8c.html#ac7dbc515a87649cf46e59ac91ba1803f" target="_top" xlink:title=" ">
<polygon fill="white" stroke="#666666" points="321,-129 182,-129 182,-110 321,-110 321,-129"/>
<text text-anchor="middle" x="251.5" y="-117" font-family="Helvetica,sans-Serif" font-size="10.00">CL_FindNonSolidLocation</text>
</a>
</g>
</g>
<!-- Node1&#45;&gt;Node2 -->
<g id="edge1_Node000001_Node000002" class="edge">
<title>Node1&#45;&gt;Node2</title>
<g id="a_edge1_Node000001_Node000002"><a xlink:title=" ">
<path fill="none" stroke="#63b8ff" d="M100.01,-74.01C121.78,-81.82 153.73,-92.96 182,-101.5 188.56,-103.48 195.52,-105.46 202.38,-107.33"/>
<polygon fill="#63b8ff" stroke="#63b8ff" points="201.75,-110.79 212.32,-109.99 203.56,-104.02 201.75,-110.79"/>
</a>
</g>
</g>
<!-- Node3 -->
<g id="Node000003" class="node">
<title>Node3</title>
<g id="a_Node000003"><a xlink:href="cl__particles_8c.html#a16fed15808e5743d5e8c36915eb80452" target="_top" xlink:title=" ">
<polygon fill="#fff0f0" stroke="red" points="300.5,-74 202.5,-74 202.5,-55 300.5,-55 300.5,-74"/>
<text text-anchor="middle" x="251.5" y="-62" font-family="Helvetica,sans-Serif" font-size="10.00">CL_ParticleEffect</text>
</a>
</g>
</g>
<!-- Node1&#45;&gt;Node3 -->
<g id="edge3_Node000001_Node000003" class="edge">
<title>Node1&#45;&gt;Node3</title>
<g id="a_edge3_Node000001_Node000003"><a xlink:title=" ">
<path fill="none" stroke="#63b8ff" d="M146.04,-64.5C161.46,-64.5 177.55,-64.5 192.36,-64.5"/>
<polygon fill="#63b8ff" stroke="#63b8ff" points="192.38,-68 202.38,-64.5 192.38,-61 192.38,-68"/>
</a>
</g>
</g>
<!-- Node500 -->
<g id="Node000500" class="node">
<title>Node500</title>
<g id="a_Node000500"><a xlink:href="snd__main_8c.html#a418d13b1c4fe19c2ef0ed171ae339426" target="_top" xlink:title="S_StartSound returns the channel index, or &#45;1 if an error occurred.">
<polygon fill="#fff0f0" stroke="red" points="292,-19 211,-19 211,0 292,0 292,-19"/>
<text text-anchor="middle" x="251.5" y="-7" font-family="Helvetica,sans-Serif" font-size="10.00">S_StartSound</text>
</a>
</g>
</g>
<!-- Node1&#45;&gt;Node500 -->
<g id="edge5_Node000001_Node000500" class="edge">
<title>Node1&#45;&gt;Node500</title>
<g id="a_edge5_Node000001_Node000500"><a xlink:title=" ">
<path fill="none" stroke="#63b8ff" d="M104.74,-54.92C133.89,-45.84 177.85,-32.14 209.87,-22.16"/>
<polygon fill="#63b8ff" stroke="#63b8ff" points="211.31,-25.38 219.81,-19.06 209.22,-18.7 211.31,-25.38"/>
</a>
</g>
</g>
<!-- Node2&#45;&gt;Node2 -->
<g id="edge2_Node000002_Node000002" class="edge">
<title>Node2&#45;&gt;Node2</title>
<g id="a_edge2_Node000002_Node000002"><a xlink:title=" ">
<path fill="none" stroke="#63b8ff" d="M224.07,-129.08C210.72,-137.73 219.86,-147 251.5,-147 272.76,-147 283.86,-142.82 284.81,-137.45"/>
<polygon fill="#63b8ff" stroke="#63b8ff" points="287.55,-135.26 278.93,-129.08 281.82,-139.28 287.55,-135.26"/>
</a>
</g>
</g>
<!-- Node3&#45;&gt;Node3 -->
<g id="edge4_Node000003_Node000003" class="edge">
<title>Node3&#45;&gt;Node3</title>
<g id="a_edge4_Node000003_Node000003"><a xlink:title=" ">
<path fill="none" stroke="#63b8ff" d="M224.07,-74.08C210.72,-82.73 219.86,-92 251.5,-92 272.76,-92 283.86,-87.82 284.81,-82.45"/>
<polygon fill="#63b8ff" stroke="#63b8ff" points="287.55,-80.26 278.93,-74.08 281.82,-84.28 287.55,-80.26"/>
</a>
</g>
</g>
<!-- Node500&#45;&gt;Node500 -->
<g id="edge6_Node000500_Node000500" class="edge">
<title>Node500&#45;&gt;Node500</title>
<g id="a_edge6_Node000500_Node000500"><a xlink:title=" ">
<path fill="none" stroke="#63b8ff" d="M224.07,-19.08C210.72,-27.73 219.86,-37 251.5,-37 272.76,-37 283.86,-32.82 284.81,-27.45"/>
<polygon fill="#63b8ff" stroke="#63b8ff" points="287.55,-25.26 278.93,-19.08 281.82,-29.28 287.55,-25.26"/>
</a>
</g>
</g>
</g>
</svg>
