<?xml version="1.0" encoding="UTF-8" standalone="no"?>
<!DOCTYPE svg PUBLIC "-//W3C//DTD SVG 1.1//EN"
 "http://www.w3.org/Graphics/SVG/1.1/DTD/svg11.dtd">
<!-- Generated by graphviz version 2.43.0 (0)
 -->
<!-- Title: csprogs.c Pages: 1 -->
<!--zoomable 247 -->

<svg id="main" version="1.1" xmlns="http://www.w3.org/2000/svg" xmlns:xlink="http://www.w3.org/1999/xlink" xml:space="preserve">

<style type="text/css"><![CDATA[
.node, .edge {opacity: 0.7;}
.node.selected, .edge.selected {opacity: 1;}
.edge:hover path { stroke: red; }
.edge:hover polygon { stroke: red; fill: red; }
]]></style>

<defs>
  <circle id="rim" cx="0" cy="0" r="7"/>
  <circle id="rim2" cx="0" cy="0" r="3.5"/>
  <g id="zoomPlus">
    <use xlink:href="#rim" fill="#404040"><set attributeName="fill" to="#808080" begin="zoomplus.mouseover" end="zoomplus.mouseout"/></use>
    <path d="M-4,0h8M0,-4v8" fill="none" stroke="white" stroke-width="1.5" pointer-events="none"/>
  </g>
  <g id="zoomMin">
    <use xlink:href="#rim" fill="#404040"><set attributeName="fill" to="#808080" begin="zoomminus.mouseover" end="zoomminus.mouseout"/></use>
    <path d="M-4,0h8" fill="none" stroke="white" stroke-width="1.5" pointer-events="none"/>
  </g>
  <g id="arrowUp" transform="translate(30 24)">
    <use xlink:href="#rim"/>
    <path pointer-events="none" fill="none" stroke="white" stroke-width="1.5" d="M0,-3.0v7 M-2.5,-0.5L0,-3.0L2.5,-0.5"/>
  </g>
  <g id="arrowRight" transform="rotate(90) translate(36 -43)">
    <use xlink:href="#rim"/>
    <path pointer-events="none" fill="none" stroke="white" stroke-width="1.5" d="M0,-3.0v7 M-2.5,-0.5L0,-3.0L2.5,-0.5"/>
  </g>
  <g id="arrowDown" transform="rotate(180) translate(-30 -48)">
    <use xlink:href="#rim"/>
    <path pointer-events="none" fill="none" stroke="white" stroke-width="1.5" d="M0,-3.0v7 M-2.5,-0.5L0,-3.0L2.5,-0.5"/>
  </g>
  <g id="arrowLeft" transform="rotate(270) translate(-36 17)">
    <use xlink:href="#rim"/>
    <path pointer-events="none" fill="none" stroke="white" stroke-width="1.5" d="M0,-3.0v7 M-2.5,-0.5L0,-3.0L2.5,-0.5"/>
  </g>
  <g id="resetDef">
    <use xlink:href="#rim2" fill="#404040"><set attributeName="fill" to="#808080" begin="reset.mouseover" end="reset.mouseout"/></use>
  </g>
</defs>
<script type="application/ecmascript" xlink:href="svg.min.js"/>
<svg id="graph" class="graph" data-view-width="585" data-view-height="247" data-section-id="dynsection-0">
<g id="viewport">
<title>csprogs.c</title>
<!-- Node1 -->
<g id="Node000001" class="node">
<title>Node1</title>
<g id="a_Node000001"><a xlink:title=" ">
<polygon fill="#999999" stroke="#666666" points="271.5,-239 209.5,-239 209.5,-220 271.5,-220 271.5,-239"/>
<text text-anchor="middle" x="240.5" y="-227" font-family="Helvetica,sans-Serif" font-size="10.00">csprogs.c</text>
</a>
</g>
</g>
<!-- Node2 -->
<g id="Node000002" class="node">
<title>Node2</title>
<g id="a_Node000002"><a xlink:href="quakedef_8h.html" target="_top" xlink:title=" ">
<polygon fill="#fff0f0" stroke="red" points="212.5,-129 142.5,-129 142.5,-110 212.5,-110 212.5,-129"/>
<text text-anchor="middle" x="177.5" y="-117" font-family="Helvetica,sans-Serif" font-size="10.00">quakedef.h</text>
</a>
</g>
</g>
<!-- Node1&#45;&gt;Node2 -->
<g id="edge1_Node000001_Node000002" class="edge">
<title>Node1&#45;&gt;Node2</title>
<g id="a_edge1_Node000001_Node000002"><a xlink:title=" ">
<path fill="none" stroke="#63b8ff" d="M235.34,-219.66C224.96,-201.85 201.34,-161.37 187.71,-138.01"/>
<polygon fill="#63b8ff" stroke="#63b8ff" points="190.61,-136.03 182.55,-129.16 184.57,-139.56 190.61,-136.03"/>
</a>
</g>
</g>
<!-- Node82 -->
<g id="Node000082" class="node">
<title>Node82</title>
<g id="a_Node000082"><a xlink:href="progsvm_8h.html" target="_top" xlink:title=" ">
<polygon fill="#fff0f0" stroke="red" points="148.5,-74 80.5,-74 80.5,-55 148.5,-55 148.5,-74"/>
<text text-anchor="middle" x="114.5" y="-62" font-family="Helvetica,sans-Serif" font-size="10.00">progsvm.h</text>
</a>
</g>
</g>
<!-- Node1&#45;&gt;Node82 -->
<g id="edge6_Node000001_Node000082" class="edge">
<title>Node1&#45;&gt;Node82</title>
<g id="a_edge6_Node000001_Node000082"><a xlink:title=" ">
<path fill="none" stroke="#63b8ff" d="M227.55,-219.99C205.07,-204.55 158.81,-169.72 133.5,-129 124.96,-115.26 120.07,-97.45 117.39,-84.19"/>
<polygon fill="#63b8ff" stroke="#63b8ff" points="120.83,-83.55 115.64,-74.32 113.94,-84.77 120.83,-83.55"/>
</a>
</g>
</g>
<!-- Node84 -->
<g id="Node000084" class="node">
<title>Node84</title>
<g id="a_Node000084"><a xlink:href="clprogdefs_8h.html" target="_top" xlink:title=" ">
<polygon fill="white" stroke="#666666" points="77,-19 0,-19 0,0 77,0 77,-19"/>
<text text-anchor="middle" x="38.5" y="-7" font-family="Helvetica,sans-Serif" font-size="10.00">clprogdefs.h</text>
</a>
</g>
</g>
<!-- Node1&#45;&gt;Node84 -->
<g id="edge7_Node000001_Node000084" class="edge">
<title>Node1&#45;&gt;Node84</title>
<g id="a_edge7_Node000001_Node000084"><a xlink:title=" ">
<path fill="none" stroke="#63b8ff" d="M209.14,-226.92C153.96,-223.4 43.12,-212.84 19.5,-184 -17.55,-138.74 12.07,-63.09 28.89,-28.61"/>
<polygon fill="#63b8ff" stroke="#63b8ff" points="32.21,-29.82 33.61,-19.31 25.96,-26.65 32.21,-29.82"/>
</a>
</g>
</g>
<!-- Node85 -->
<g id="Node000085" class="node">
<title>Node85</title>
<g id="a_Node000085"><a xlink:href="prvm__offsets_8h.html" target="_top" xlink:title=" ">
<polygon fill="white" stroke="#666666" points="253,-19 164,-19 164,0 253,0 253,-19"/>
<text text-anchor="middle" x="208.5" y="-7" font-family="Helvetica,sans-Serif" font-size="10.00">prvm_offsets.h</text>
</a>
</g>
</g>
<!-- Node1&#45;&gt;Node85 -->
<g id="edge16_Node000001_Node000085" class="edge">
<title>Node1&#45;&gt;Node85</title>
<g id="a_edge16_Node000001_Node000085"><a xlink:title=" ">
<path fill="none" stroke="#63b8ff" d="M243.38,-219.8C251.52,-193.71 272.65,-114.28 249.5,-55 245.1,-43.73 236.36,-33.59 228.07,-25.85"/>
<polygon fill="#63b8ff" stroke="#63b8ff" points="230.27,-23.12 220.43,-19.2 225.68,-28.4 230.27,-23.12"/>
</a>
</g>
</g>
<!-- Node90 -->
<g id="Node000090" class="node">
<title>Node90</title>
<g id="a_Node000090"><a xlink:href="csprogs_8h.html" target="_top" xlink:title=" ">
<polygon fill="white" stroke="#666666" points="240,-74 177,-74 177,-55 240,-55 240,-74"/>
<text text-anchor="middle" x="208.5" y="-62" font-family="Helvetica,sans-Serif" font-size="10.00">csprogs.h</text>
</a>
</g>
</g>
<!-- Node1&#45;&gt;Node90 -->
<g id="edge8_Node000001_Node000090" class="edge">
<title>Node1&#45;&gt;Node90</title>
<g id="a_edge8_Node000001_Node000090"><a xlink:title=" ">
<path fill="none" stroke="#63b8ff" d="M239.49,-219.81C237.1,-200.11 230.66,-150.65 221.5,-110 219.55,-101.36 216.88,-91.93 214.46,-83.98"/>
<polygon fill="#63b8ff" stroke="#63b8ff" points="217.75,-82.77 211.42,-74.28 211.07,-84.87 217.75,-82.77"/>
</a>
</g>
</g>
<!-- Node93 -->
<g id="Node000093" class="node">
<title>Node93</title>
<g id="a_Node000093"><a xlink:href="cl__collision_8h.html" target="_top" xlink:title=" ">
<polygon fill="white" stroke="#666666" points="386.5,-184 306.5,-184 306.5,-165 386.5,-165 386.5,-184"/>
<text text-anchor="middle" x="346.5" y="-172" font-family="Helvetica,sans-Serif" font-size="10.00">cl_collision.h</text>
</a>
</g>
</g>
<!-- Node1&#45;&gt;Node93 -->
<g id="edge9_Node000001_Node000093" class="edge">
<title>Node1&#45;&gt;Node93</title>
<g id="a_edge9_Node000001_Node000093"><a xlink:title=" ">
<path fill="none" stroke="#63b8ff" d="M257.53,-219.98C274.43,-211.54 300.56,-198.47 320.14,-188.68"/>
<polygon fill="#63b8ff" stroke="#63b8ff" points="321.78,-191.77 329.16,-184.17 318.65,-185.51 321.78,-191.77"/>
</a>
</g>
</g>
<!-- Node68 -->
<g id="Node000068" class="node">
<title>Node68</title>
<g id="a_Node000068"><a xlink:href="snd__main_8h.html" target="_top" xlink:title=" ">
<polygon fill="#fff0f0" stroke="red" points="478,-184 405,-184 405,-165 478,-165 478,-184"/>
<text text-anchor="middle" x="441.5" y="-172" font-family="Helvetica,sans-Serif" font-size="10.00">snd_main.h</text>
</a>
</g>
</g>
<!-- Node1&#45;&gt;Node68 -->
<g id="edge10_Node000001_Node000068" class="edge">
<title>Node1&#45;&gt;Node68</title>
<g id="a_edge10_Node000001_Node000068"><a xlink:title=" ">
<path fill="none" stroke="#63b8ff" d="M271.91,-220.22C306.16,-211.19 361.18,-196.68 399.22,-186.65"/>
<polygon fill="#63b8ff" stroke="#63b8ff" points="400.21,-190.01 408.98,-184.07 398.42,-183.24 400.21,-190.01"/>
</a>
</g>
</g>
<!-- Node94 -->
<g id="Node000094" class="node">
<title>Node94</title>
<g id="a_Node000094"><a xlink:href="clvm__cmds_8h.html" target="_top" xlink:title=" ">
<polygon fill="white" stroke="#666666" points="577,-184 496,-184 496,-165 577,-165 577,-184"/>
<text text-anchor="middle" x="536.5" y="-172" font-family="Helvetica,sans-Serif" font-size="10.00">clvm_cmds.h</text>
</a>
</g>
</g>
<!-- Node1&#45;&gt;Node94 -->
<g id="edge11_Node000001_Node000094" class="edge">
<title>Node1&#45;&gt;Node94</title>
<g id="a_edge11_Node000001_Node000094"><a xlink:title=" ">
<path fill="none" stroke="#63b8ff" d="M271.62,-222.93C322.66,-213.79 424.61,-195.53 486.07,-184.53"/>
<polygon fill="#63b8ff" stroke="#63b8ff" points="486.72,-187.97 495.95,-182.76 485.49,-181.08 486.72,-187.97"/>
</a>
</g>
</g>
<!-- Node95 -->
<g id="Node000095" class="node">
<title>Node95</title>
<g id="a_Node000095"><a xlink:href="prvm__cmds_8h.html" target="_top" xlink:title=" ">
<polygon fill="#fff0f0" stroke="red" points="112,-184 29,-184 29,-165 112,-165 112,-184"/>
<text text-anchor="middle" x="70.5" y="-172" font-family="Helvetica,sans-Serif" font-size="10.00">prvm_cmds.h</text>
</a>
</g>
</g>
<!-- Node1&#45;&gt;Node95 -->
<g id="edge12_Node000001_Node000095" class="edge">
<title>Node1&#45;&gt;Node95</title>
<g id="a_edge12_Node000001_Node000095"><a xlink:title=" ">
<path fill="none" stroke="#63b8ff" d="M213.19,-219.98C184.65,-211.09 139.67,-197.07 107.86,-187.15"/>
<polygon fill="#63b8ff" stroke="#63b8ff" points="108.62,-183.72 98.03,-184.08 106.53,-190.4 108.62,-183.72"/>
</a>
</g>
</g>
<!-- Node2&#45;&gt;Node82 -->
<g id="edge2_Node000002_Node000082" class="edge">
<title>Node2&#45;&gt;Node82</title>
<g id="a_edge2_Node000002_Node000082"><a xlink:title=" ">
<path fill="none" stroke="#63b8ff" d="M167.38,-109.98C158.06,-102.15 144.03,-90.34 132.76,-80.86"/>
<polygon fill="#63b8ff" stroke="#63b8ff" points="134.71,-77.93 124.81,-74.17 130.21,-83.29 134.71,-77.93"/>
</a>
</g>
</g>
<!-- Node2&#45;&gt;Node90 -->
<g id="edge5_Node000002_Node000090" class="edge">
<title>Node2&#45;&gt;Node90</title>
<g id="a_edge5_Node000002_Node000090"><a xlink:title=" ">
<path fill="none" stroke="#63b8ff" d="M182.62,-109.75C186.86,-102.49 193.03,-91.95 198.28,-82.98"/>
<polygon fill="#63b8ff" stroke="#63b8ff" points="201.45,-84.49 203.48,-74.09 195.41,-80.95 201.45,-84.49"/>
</a>
</g>
</g>
<!-- Node82&#45;&gt;Node84 -->
<g id="edge3_Node000082_Node000084" class="edge">
<title>Node82&#45;&gt;Node84</title>
<g id="a_edge3_Node000082_Node000084"><a xlink:title=" ">
<path fill="none" stroke="#63b8ff" d="M102.29,-54.98C90.72,-46.92 73.12,-34.65 59.34,-25.03"/>
<polygon fill="#63b8ff" stroke="#63b8ff" points="61.14,-22.02 50.93,-19.17 57.13,-27.76 61.14,-22.02"/>
</a>
</g>
</g>
<!-- Node82&#45;&gt;Node85 -->
<g id="edge4_Node000082_Node000085" class="edge">
<title>Node82&#45;&gt;Node85</title>
<g id="a_edge4_Node000082_Node000085"><a xlink:title=" ">
<path fill="none" stroke="#63b8ff" d="M129.6,-54.98C144.32,-46.69 166.92,-33.94 184.17,-24.22"/>
<polygon fill="#63b8ff" stroke="#63b8ff" points="186.13,-27.13 193.12,-19.17 182.69,-21.03 186.13,-27.13"/>
</a>
</g>
</g>
<!-- Node95&#45;&gt;Node2 -->
<g id="edge13_Node000095_Node000002" class="edge">
<title>Node95&#45;&gt;Node2</title>
<g id="a_edge13_Node000095_Node000002"><a xlink:title=" ">
<path fill="none" stroke="#63b8ff" d="M87.69,-164.98C104.75,-156.54 131.13,-143.47 150.9,-133.68"/>
<polygon fill="#63b8ff" stroke="#63b8ff" points="152.59,-136.75 160,-129.17 149.48,-130.47 152.59,-136.75"/>
</a>
</g>
</g>
<!-- Node95&#45;&gt;Node82 -->
<g id="edge14_Node000095_Node000082" class="edge">
<title>Node95&#45;&gt;Node82</title>
<g id="a_edge14_Node000095_Node000082"><a xlink:title=" ">
<path fill="none" stroke="#63b8ff" d="M74.1,-164.66C81.29,-147.01 97.56,-107.09 107.11,-83.64"/>
<polygon fill="#63b8ff" stroke="#63b8ff" points="110.44,-84.74 110.97,-74.16 103.96,-82.1 110.44,-84.74"/>
</a>
</g>
</g>
<!-- Node95&#45;&gt;Node84 -->
<g id="edge15_Node000095_Node000084" class="edge">
<title>Node95&#45;&gt;Node84</title>
<g id="a_edge15_Node000095_Node000084"><a xlink:title=" ">
<path fill="none" stroke="#63b8ff" d="M68.78,-164.74C63.77,-139.2 49.09,-64.43 42.18,-29.23"/>
<polygon fill="#63b8ff" stroke="#63b8ff" points="45.59,-28.45 40.23,-19.31 38.72,-29.79 45.59,-28.45"/>
</a>
</g>
</g>
</g>
</svg>

<g id="navigator" transform="translate(0 0)" fill="#404254">
  <rect fill="#f2f5e9" fill-opacity="0.5" stroke="#606060" stroke-width=".5" x="0" y="0" width="60" height="60"/>
  <use id="zoomplus" xlink:href="#zoomPlus" x="17" y="9" data-zoom="in"/>
  <use id="zoomminus" xlink:href="#zoomMin" x="42" y="9" data-zoom="out"/>
  <use id="reset" xlink:href="#resetDef" x="30" y="36" data-reset="true"/>
  <use id="arrowup" xlink:href="#arrowUp" x="0" y="0" data-pan-x="0" data-pan-y="-1"/>
  <use id="arrowright" xlink:href="#arrowRight" x="0" y="0" data-pan-x="1" data-pan-y="0"/>
  <use id="arrowdown" xlink:href="#arrowDown" x="0" y="0" data-pan-x="0" data-pan-y="1"/>
  <use id="arrowleft" xlink:href="#arrowLeft" x="0" y="0" data-pan-x="-1" data-pan-y="0"/>
</g>
<svg viewBox="0 0 15 15" width="100%" height="30px" preserveAspectRatio="xMaxYMin meet">
 <g id="arrow_out" transform="scale(0.3 0.3)">
  <a xlink:href="csprogs_8c__incl_org.svg" target="_base">
   <rect id="button" ry="5" rx="5" y="6" x="6" height="38" width="38"
        fill="#f2f5e9" fill-opacity="0.5" stroke="#606060" stroke-width="1.0"/>
   <path id="arrow"
     d="M 11.500037,31.436501 C 11.940474,20.09759 22.043105,11.32322 32.158766,21.979434 L 37.068811,17.246167 C 37.068811,17.246167 37.088388,32 37.088388,32 L 22.160133,31.978069 C 22.160133,31.978069 26.997745,27.140456 26.997745,27.140456 C 18.528582,18.264221 13.291696,25.230495 11.500037,31.436501 z"
     style="fill:#404040;"/>
  </a>
 </g>
</svg>

<style type='text/css'>
<![CDATA[
[data-mouse-over-selected='false'] { opacity: 0.7; }
[data-mouse-over-selected='true']  { opacity: 1.0; }
]]>
</style>
</svg>
