<?xml version="1.0" encoding="UTF-8" standalone="no"?>
<!DOCTYPE svg PUBLIC "-//W3C//DTD SVG 1.1//EN"
 "http://www.w3.org/Graphics/SVG/1.1/DTD/svg11.dtd">
<!-- Generated by graphviz version 2.43.0 (0)
 -->
<!-- Title: darkplaces.h Pages: 1 -->
<!--zoomable 192 -->

<svg id="main" version="1.1" xmlns="http://www.w3.org/2000/svg" xmlns:xlink="http://www.w3.org/1999/xlink" xml:space="preserve">

<style type="text/css"><![CDATA[
.node, .edge {opacity: 0.7;}
.node.selected, .edge.selected {opacity: 1;}
.edge:hover path { stroke: red; }
.edge:hover polygon { stroke: red; fill: red; }
]]></style>

<defs>
  <circle id="rim" cx="0" cy="0" r="7"/>
  <circle id="rim2" cx="0" cy="0" r="3.5"/>
  <g id="zoomPlus">
    <use xlink:href="#rim" fill="#404040"><set attributeName="fill" to="#808080" begin="zoomplus.mouseover" end="zoomplus.mouseout"/></use>
    <path d="M-4,0h8M0,-4v8" fill="none" stroke="white" stroke-width="1.5" pointer-events="none"/>
  </g>
  <g id="zoomMin">
    <use xlink:href="#rim" fill="#404040"><set attributeName="fill" to="#808080" begin="zoomminus.mouseover" end="zoomminus.mouseout"/></use>
    <path d="M-4,0h8" fill="none" stroke="white" stroke-width="1.5" pointer-events="none"/>
  </g>
  <g id="arrowUp" transform="translate(30 24)">
    <use xlink:href="#rim"/>
    <path pointer-events="none" fill="none" stroke="white" stroke-width="1.5" d="M0,-3.0v7 M-2.5,-0.5L0,-3.0L2.5,-0.5"/>
  </g>
  <g id="arrowRight" transform="rotate(90) translate(36 -43)">
    <use xlink:href="#rim"/>
    <path pointer-events="none" fill="none" stroke="white" stroke-width="1.5" d="M0,-3.0v7 M-2.5,-0.5L0,-3.0L2.5,-0.5"/>
  </g>
  <g id="arrowDown" transform="rotate(180) translate(-30 -48)">
    <use xlink:href="#rim"/>
    <path pointer-events="none" fill="none" stroke="white" stroke-width="1.5" d="M0,-3.0v7 M-2.5,-0.5L0,-3.0L2.5,-0.5"/>
  </g>
  <g id="arrowLeft" transform="rotate(270) translate(-36 17)">
    <use xlink:href="#rim"/>
    <path pointer-events="none" fill="none" stroke="white" stroke-width="1.5" d="M0,-3.0v7 M-2.5,-0.5L0,-3.0L2.5,-0.5"/>
  </g>
  <g id="resetDef">
    <use xlink:href="#rim2" fill="#404040"><set attributeName="fill" to="#808080" begin="reset.mouseover" end="reset.mouseout"/></use>
  </g>
</defs>
<script type="application/ecmascript" xlink:href="svg.min.js"/>
<svg id="graph" class="graph" data-view-width="1462" data-view-height="192" data-section-id="dynsection-0">
<g id="viewport">
<title>darkplaces.h</title>
<!-- Node1 -->
<g id="Node000001" class="node">
<title>Node1</title>
<g id="a_Node000001"><a xlink:title=" ">
<polygon fill="#999999" stroke="#666666" points="741.5,-184 662.5,-184 662.5,-165 741.5,-165 741.5,-184"/>
<text text-anchor="middle" x="702" y="-172" font-family="Helvetica,sans-Serif" font-size="10.00">darkplaces.h</text>
</a>
</g>
</g>
<!-- Node2 -->
<g id="Node000002" class="node">
<title>Node2</title>
<g id="a_Node000002"><a xlink:title=" ">
<polygon fill="#e0e0e0" stroke="#999999" points="72,-129 0,-129 0,-110 72,-110 72,-129"/>
<text text-anchor="middle" x="36" y="-117" font-family="Helvetica,sans-Serif" font-size="10.00">sys/types.h</text>
</a>
</g>
</g>
<!-- Node1&#45;&gt;Node2 -->
<g id="edge1_Node000001_Node000002" class="edge">
<title>Node1&#45;&gt;Node2</title>
<g id="a_edge1_Node000001_Node000002"><a xlink:title=" ">
<path fill="none" stroke="#63b8ff" d="M662.25,-172.24C564.97,-168.81 307.1,-157.69 82.3,-129.02"/>
<polygon fill="#63b8ff" stroke="#63b8ff" points="82.66,-125.53 72.29,-127.73 81.76,-132.48 82.66,-125.53"/>
</a>
</g>
</g>
<!-- Node3 -->
<g id="Node000003" class="node">
<title>Node3</title>
<g id="a_Node000003"><a xlink:title=" ">
<polygon fill="#e0e0e0" stroke="#999999" points="143.5,-129 90.5,-129 90.5,-110 143.5,-110 143.5,-129"/>
<text text-anchor="middle" x="117" y="-117" font-family="Helvetica,sans-Serif" font-size="10.00">ctype.h</text>
</a>
</g>
</g>
<!-- Node1&#45;&gt;Node3 -->
<g id="edge2_Node000001_Node000003" class="edge">
<title>Node1&#45;&gt;Node3</title>
<g id="a_edge2_Node000001_Node000003"><a xlink:title=" ">
<path fill="none" stroke="#63b8ff" d="M662.48,-172.34C573.38,-169.29 349.97,-159.2 153.57,-128.82"/>
<polygon fill="#63b8ff" stroke="#63b8ff" points="154.07,-125.36 143.65,-127.26 152.98,-132.27 154.07,-125.36"/>
</a>
</g>
</g>
<!-- Node4 -->
<g id="Node000004" class="node">
<title>Node4</title>
<g id="a_Node000004"><a xlink:title=" ">
<polygon fill="#e0e0e0" stroke="#999999" points="212.5,-129 161.5,-129 161.5,-110 212.5,-110 212.5,-129"/>
<text text-anchor="middle" x="187" y="-117" font-family="Helvetica,sans-Serif" font-size="10.00">math.h</text>
</a>
</g>
</g>
<!-- Node1&#45;&gt;Node4 -->
<g id="edge3_Node000001_Node000004" class="edge">
<title>Node1&#45;&gt;Node4</title>
<g id="a_edge3_Node000001_Node000004"><a xlink:title=" ">
<path fill="none" stroke="#63b8ff" d="M662.24,-171.78C581.32,-167.85 391.6,-156.49 222.6,-128.83"/>
<polygon fill="#63b8ff" stroke="#63b8ff" points="222.96,-125.34 212.53,-127.15 221.82,-132.24 222.96,-125.34"/>
</a>
</g>
</g>
<!-- Node5 -->
<g id="Node000005" class="node">
<title>Node5</title>
<g id="a_Node000005"><a xlink:title=" ">
<polygon fill="#e0e0e0" stroke="#999999" points="283.5,-129 230.5,-129 230.5,-110 283.5,-110 283.5,-129"/>
<text text-anchor="middle" x="257" y="-117" font-family="Helvetica,sans-Serif" font-size="10.00">string.h</text>
</a>
</g>
</g>
<!-- Node1&#45;&gt;Node5 -->
<g id="edge4_Node000001_Node000005" class="edge">
<title>Node1&#45;&gt;Node5</title>
<g id="a_edge4_Node000001_Node000005"><a xlink:title=" ">
<path fill="none" stroke="#63b8ff" d="M662.27,-170.38C589.65,-164.4 430.77,-150.03 298,-129 296.71,-128.8 295.39,-128.58 294.07,-128.35"/>
<polygon fill="#63b8ff" stroke="#63b8ff" points="294.31,-124.83 283.84,-126.44 293.03,-131.72 294.31,-124.83"/>
</a>
</g>
</g>
<!-- Node6 -->
<g id="Node000006" class="node">
<title>Node6</title>
<g id="a_Node000006"><a xlink:title=" ">
<polygon fill="#e0e0e0" stroke="#999999" points="460,-74 404,-74 404,-55 460,-55 460,-74"/>
<text text-anchor="middle" x="432" y="-62" font-family="Helvetica,sans-Serif" font-size="10.00">stdarg.h</text>
</a>
</g>
</g>
<!-- Node1&#45;&gt;Node6 -->
<g id="edge5_Node000001_Node000006" class="edge">
<title>Node1&#45;&gt;Node6</title>
<g id="a_edge5_Node000001_Node000006"><a xlink:title=" ">
<path fill="none" stroke="#63b8ff" d="M662.3,-173.38C616.04,-171.53 538.83,-163.02 483,-129 464.75,-117.88 450.28,-97.76 441.48,-83.14"/>
<polygon fill="#63b8ff" stroke="#63b8ff" points="444.31,-81.04 436.32,-74.08 438.22,-84.5 444.31,-81.04"/>
</a>
</g>
</g>
<!-- Node7 -->
<g id="Node000007" class="node">
<title>Node7</title>
<g id="a_Node000007"><a xlink:title=" ">
<polygon fill="#e0e0e0" stroke="#999999" points="1382,-129 1332,-129 1332,-110 1382,-110 1382,-129"/>
<text text-anchor="middle" x="1357" y="-117" font-family="Helvetica,sans-Serif" font-size="10.00">stdio.h</text>
</a>
</g>
</g>
<!-- Node1&#45;&gt;Node7 -->
<g id="edge6_Node000001_Node000007" class="edge">
<title>Node1&#45;&gt;Node7</title>
<g id="a_edge6_Node000001_Node000007"><a xlink:title=" ">
<path fill="none" stroke="#63b8ff" d="M741.85,-172.59C840.17,-169.91 1102.04,-160.17 1318,-129 1319.27,-128.82 1320.57,-128.61 1321.87,-128.4"/>
<polygon fill="#63b8ff" stroke="#63b8ff" points="1322.74,-131.8 1331.92,-126.52 1321.45,-124.92 1322.74,-131.8"/>
</a>
</g>
</g>
<!-- Node8 -->
<g id="Node000008" class="node">
<title>Node8</title>
<g id="a_Node000008"><a xlink:title=" ">
<polygon fill="#e0e0e0" stroke="#999999" points="865.5,-74 812.5,-74 812.5,-55 865.5,-55 865.5,-74"/>
<text text-anchor="middle" x="839" y="-62" font-family="Helvetica,sans-Serif" font-size="10.00">stdlib.h</text>
</a>
</g>
</g>
<!-- Node1&#45;&gt;Node8 -->
<g id="edge7_Node000001_Node000008" class="edge">
<title>Node1&#45;&gt;Node8</title>
<g id="a_edge7_Node000001_Node000008"><a xlink:title=" ">
<path fill="none" stroke="#63b8ff" d="M741.82,-172.08C773.15,-168.62 815.06,-158.35 837,-129 846.48,-116.31 845.96,-97.88 843.67,-84.14"/>
<polygon fill="#63b8ff" stroke="#63b8ff" points="847.09,-83.39 841.61,-74.32 840.23,-84.83 847.09,-83.39"/>
</a>
</g>
</g>
<!-- Node9 -->
<g id="Node000009" class="node">
<title>Node9</title>
<g id="a_Node000009"><a xlink:title=" ">
<polygon fill="#e0e0e0" stroke="#999999" points="1453.5,-129 1400.5,-129 1400.5,-110 1453.5,-110 1453.5,-129"/>
<text text-anchor="middle" x="1427" y="-117" font-family="Helvetica,sans-Serif" font-size="10.00">limits.h</text>
</a>
</g>
</g>
<!-- Node1&#45;&gt;Node9 -->
<g id="edge8_Node000001_Node000009" class="edge">
<title>Node1&#45;&gt;Node9</title>
<g id="a_edge8_Node000001_Node000009"><a xlink:title=" ">
<path fill="none" stroke="#63b8ff" d="M741.86,-173.25C846.62,-172.1 1138.36,-165.72 1390.28,-128.81"/>
<polygon fill="#63b8ff" stroke="#63b8ff" points="1390.98,-132.24 1400.36,-127.31 1389.95,-125.32 1390.98,-132.24"/>
</a>
</g>
</g>
<!-- Node10 -->
<g id="Node000010" class="node">
<title>Node10</title>
<g id="a_Node000010"><a xlink:href="sys_8h.html" target="_top" xlink:title=" ">
<polygon fill="white" stroke="#666666" points="1238,-74 1196,-74 1196,-55 1238,-55 1238,-74"/>
<text text-anchor="middle" x="1217" y="-62" font-family="Helvetica,sans-Serif" font-size="10.00">sys.h</text>
</a>
</g>
</g>
<!-- Node1&#45;&gt;Node10 -->
<g id="edge9_Node000001_Node000010" class="edge">
<title>Node1&#45;&gt;Node10</title>
<g id="a_edge9_Node000001_Node000010"><a xlink:title=" ">
<path fill="none" stroke="#63b8ff" d="M741.76,-171.79C832.89,-167.47 1054.33,-154.6 1124,-129 1153.49,-118.17 1182.6,-95.91 1200.19,-80.84"/>
<polygon fill="#63b8ff" stroke="#63b8ff" points="1202.66,-83.34 1207.85,-74.1 1198.03,-78.08 1202.66,-83.34"/>
</a>
</g>
</g>
<!-- Node11 -->
<g id="Node000011" class="node">
<title>Node11</title>
<g id="a_Node000011"><a xlink:href="qtypes_8h.html" target="_top" xlink:title=" ">
<polygon fill="#fff0f0" stroke="red" points="715.5,-19 656.5,-19 656.5,0 715.5,0 715.5,-19"/>
<text text-anchor="middle" x="686" y="-7" font-family="Helvetica,sans-Serif" font-size="10.00">qtypes.h</text>
</a>
</g>
</g>
<!-- Node1&#45;&gt;Node11 -->
<g id="edge12_Node000001_Node000011" class="edge">
<title>Node1&#45;&gt;Node11</title>
<g id="a_edge12_Node000001_Node000011"><a xlink:title=" ">
<path fill="none" stroke="#63b8ff" d="M662.4,-172.63C598.45,-170.28 469.07,-161.52 365,-129 347.36,-123.49 344.98,-117.32 328,-110 280.7,-89.62 191.38,-93.13 226,-55 254.02,-24.14 539.72,-14.06 646.24,-11.36"/>
<polygon fill="#63b8ff" stroke="#63b8ff" points="646.36,-14.85 656.27,-11.11 646.19,-7.86 646.36,-14.85"/>
</a>
</g>
</g>
<!-- Node15 -->
<g id="Node000015" class="node">
<title>Node15</title>
<g id="a_Node000015"><a xlink:href="qdefs_8h.html" target="_top" xlink:title=" ">
<polygon fill="white" stroke="#666666" points="1130.5,-19 1077.5,-19 1077.5,0 1130.5,0 1130.5,-19"/>
<text text-anchor="middle" x="1104" y="-7" font-family="Helvetica,sans-Serif" font-size="10.00">qdefs.h</text>
</a>
</g>
</g>
<!-- Node1&#45;&gt;Node15 -->
<g id="edge13_Node000001_Node000015" class="edge">
<title>Node1&#45;&gt;Node15</title>
<g id="a_edge13_Node000001_Node000015"><a xlink:title=" ">
<path fill="none" stroke="#63b8ff" d="M741.54,-173.54C858.36,-172.65 1196.87,-162.37 1247,-74 1271.09,-31.54 1190.88,-17.4 1140.94,-12.74"/>
<polygon fill="#63b8ff" stroke="#63b8ff" points="1141.05,-9.24 1130.79,-11.89 1140.46,-16.22 1141.05,-9.24"/>
</a>
</g>
</g>
<!-- Node16 -->
<g id="Node000016" class="node">
<title>Node16</title>
<g id="a_Node000016"><a xlink:href="zone_8h.html" target="_top" xlink:title=" ">
<polygon fill="#fff0f0" stroke="red" points="755.5,-74 706.5,-74 706.5,-55 755.5,-55 755.5,-74"/>
<text text-anchor="middle" x="731" y="-62" font-family="Helvetica,sans-Serif" font-size="10.00">zone.h</text>
</a>
</g>
</g>
<!-- Node1&#45;&gt;Node16 -->
<g id="edge14_Node000001_Node000016" class="edge">
<title>Node1&#45;&gt;Node16</title>
<g id="a_edge14_Node000001_Node000016"><a xlink:title=" ">
<path fill="none" stroke="#63b8ff" d="M704.37,-164.66C709.09,-147.09 719.74,-107.45 726.04,-83.95"/>
<polygon fill="#63b8ff" stroke="#63b8ff" points="729.46,-84.72 728.68,-74.16 722.7,-82.91 729.46,-84.72"/>
</a>
</g>
</g>
<!-- Node20 -->
<g id="Node000020" class="node">
<title>Node20</title>
<g id="a_Node000020"><a xlink:href="thread_8h.html" target="_top" xlink:title=" ">
<polygon fill="white" stroke="#666666" points="611.5,-74 554.5,-74 554.5,-55 611.5,-55 611.5,-74"/>
<text text-anchor="middle" x="583" y="-62" font-family="Helvetica,sans-Serif" font-size="10.00">thread.h</text>
</a>
</g>
</g>
<!-- Node1&#45;&gt;Node20 -->
<g id="edge17_Node000001_Node000020" class="edge">
<title>Node1&#45;&gt;Node20</title>
<g id="a_edge17_Node000001_Node000020"><a xlink:title=" ">
<path fill="none" stroke="#63b8ff" d="M684.15,-164.92C668.74,-156.97 646.44,-144.12 630,-129 615.22,-115.4 601.96,-96.58 593.33,-82.96"/>
<polygon fill="#63b8ff" stroke="#63b8ff" points="596.12,-80.81 587.91,-74.11 590.15,-84.47 596.12,-80.81"/>
</a>
</g>
</g>
<!-- Node21 -->
<g id="Node000021" class="node">
<title>Node21</title>
<g id="a_Node000021"><a xlink:href="com__game_8h.html" target="_top" xlink:title=" ">
<polygon fill="white" stroke="#666666" points="1374,-74 1294,-74 1294,-55 1374,-55 1374,-74"/>
<text text-anchor="middle" x="1334" y="-62" font-family="Helvetica,sans-Serif" font-size="10.00">com_game.h</text>
</a>
</g>
</g>
<!-- Node1&#45;&gt;Node21 -->
<g id="edge19_Node000001_Node000021" class="edge">
<title>Node1&#45;&gt;Node21</title>
<g id="a_edge19_Node000001_Node000021"><a xlink:title=" ">
<path fill="none" stroke="#63b8ff" d="M741.83,-172.2C864.69,-167.95 1232.31,-153.31 1280,-129 1299.67,-118.97 1315.08,-98.34 1324.31,-83.31"/>
<polygon fill="#63b8ff" stroke="#63b8ff" points="1327.49,-84.81 1329.47,-74.4 1321.43,-81.3 1327.49,-84.81"/>
</a>
</g>
</g>
<!-- Node22 -->
<g id="Node000022" class="node">
<title>Node22</title>
<g id="a_Node000022"><a xlink:href="com__infostring_8h.html" target="_top" xlink:title=" ">
<polygon fill="white" stroke="#666666" points="828,-129 730,-129 730,-110 828,-110 828,-129"/>
<text text-anchor="middle" x="779" y="-117" font-family="Helvetica,sans-Serif" font-size="10.00">com_infostring.h</text>
</a>
</g>
</g>
<!-- Node1&#45;&gt;Node22 -->
<g id="edge21_Node000001_Node000022" class="edge">
<title>Node1&#45;&gt;Node22</title>
<g id="a_edge21_Node000001_Node000022"><a xlink:title=" ">
<path fill="none" stroke="#63b8ff" d="M714.37,-164.98C726.09,-156.92 743.92,-144.65 757.89,-135.03"/>
<polygon fill="#63b8ff" stroke="#63b8ff" points="760.15,-137.72 766.4,-129.17 756.18,-131.96 760.15,-137.72"/>
</a>
</g>
</g>
<!-- Node23 -->
<g id="Node000023" class="node">
<title>Node23</title>
<g id="a_Node000023"><a xlink:href="common_8h.html" target="_top" xlink:title=" ">
<polygon fill="#fff0f0" stroke="red" points="560,-129 492,-129 492,-110 560,-110 560,-129"/>
<text text-anchor="middle" x="526" y="-117" font-family="Helvetica,sans-Serif" font-size="10.00">common.h</text>
</a>
</g>
</g>
<!-- Node1&#45;&gt;Node23 -->
<g id="edge24_Node000001_Node000023" class="edge">
<title>Node1&#45;&gt;Node23</title>
<g id="a_edge24_Node000001_Node000023"><a xlink:title=" ">
<path fill="none" stroke="#63b8ff" d="M673.72,-164.98C644.05,-156.05 597.21,-141.94 564.25,-132.02"/>
<polygon fill="#63b8ff" stroke="#63b8ff" points="565.08,-128.61 554.5,-129.08 563.07,-135.32 565.08,-128.61"/>
</a>
</g>
</g>
<!-- Node26 -->
<g id="Node000026" class="node">
<title>Node26</title>
<g id="a_Node000026"><a xlink:href="filematch_8h.html" target="_top" xlink:title=" ">
<polygon fill="white" stroke="#666666" points="177.5,-74 106.5,-74 106.5,-55 177.5,-55 177.5,-74"/>
<text text-anchor="middle" x="142" y="-62" font-family="Helvetica,sans-Serif" font-size="10.00">filematch.h</text>
</a>
</g>
</g>
<!-- Node1&#45;&gt;Node26 -->
<g id="edge28_Node000001_Node000026" class="edge">
<title>Node1&#45;&gt;Node26</title>
<g id="a_edge28_Node000001_Node000026"><a xlink:title=" ">
<path fill="none" stroke="#63b8ff" d="M662.26,-172.49C594.26,-169.91 451.72,-160.84 336,-129 315.86,-123.46 312.62,-117.19 293,-110 257.27,-96.9 215.73,-84.89 185.27,-76.65"/>
<polygon fill="#63b8ff" stroke="#63b8ff" points="185.96,-73.21 175.39,-74.01 184.15,-79.97 185.96,-73.21"/>
</a>
</g>
</g>
<!-- Node27 -->
<g id="Node000027" class="node">
<title>Node27</title>
<g id="a_Node000027"><a xlink:href="fs_8h.html" target="_top" xlink:title=" ">
<polygon fill="#fff0f0" stroke="red" points="673.5,-129 638.5,-129 638.5,-110 673.5,-110 673.5,-129"/>
<text text-anchor="middle" x="656" y="-117" font-family="Helvetica,sans-Serif" font-size="10.00">fs.h</text>
</a>
</g>
</g>
<!-- Node1&#45;&gt;Node27 -->
<g id="edge30_Node000001_Node000027" class="edge">
<title>Node1&#45;&gt;Node27</title>
<g id="a_edge30_Node000001_Node000027"><a xlink:title=" ">
<path fill="none" stroke="#63b8ff" d="M694.4,-164.75C687.84,-157.18 678.18,-146.05 670.19,-136.84"/>
<polygon fill="#63b8ff" stroke="#63b8ff" points="672.65,-134.35 663.45,-129.09 667.37,-138.94 672.65,-134.35"/>
</a>
</g>
</g>
<!-- Node28 -->
<g id="Node000028" class="node">
<title>Node28</title>
<g id="a_Node000028"><a xlink:href="host_8h.html" target="_top" xlink:title=" ">
<polygon fill="#fff0f0" stroke="red" points="1089.5,-129 1042.5,-129 1042.5,-110 1089.5,-110 1089.5,-129"/>
<text text-anchor="middle" x="1066" y="-117" font-family="Helvetica,sans-Serif" font-size="10.00">host.h</text>
</a>
</g>
</g>
<!-- Node1&#45;&gt;Node28 -->
<g id="edge35_Node000001_Node000028" class="edge">
<title>Node1&#45;&gt;Node28</title>
<g id="a_edge35_Node000001_Node000028"><a xlink:title=" ">
<path fill="none" stroke="#63b8ff" d="M741.56,-169.19C803.07,-162.25 925.26,-147.47 1028,-129 1029.46,-128.74 1030.94,-128.46 1032.44,-128.17"/>
<polygon fill="#63b8ff" stroke="#63b8ff" points="1033.26,-131.57 1042.35,-126.12 1031.84,-124.72 1033.26,-131.57"/>
</a>
</g>
</g>
<!-- Node30 -->
<g id="Node000030" class="node">
<title>Node30</title>
<g id="a_Node000030"><a xlink:href="cmd_8h.html" target="_top" xlink:title=" ">
<polygon fill="#fff0f0" stroke="red" points="1037.5,-74 990.5,-74 990.5,-55 1037.5,-55 1037.5,-74"/>
<text text-anchor="middle" x="1014" y="-62" font-family="Helvetica,sans-Serif" font-size="10.00">cmd.h</text>
</a>
</g>
</g>
<!-- Node1&#45;&gt;Node30 -->
<g id="edge45_Node000001_Node000030" class="edge">
<title>Node1&#45;&gt;Node30</title>
<g id="a_edge45_Node000001_Node000030"><a xlink:title=" ">
<path fill="none" stroke="#63b8ff" d="M741.62,-172.59C812.69,-170.16 957.86,-161.27 995,-129 1007.61,-118.04 1012.03,-99.09 1013.49,-84.73"/>
<polygon fill="#63b8ff" stroke="#63b8ff" points="1017,-84.65 1014.13,-74.45 1010.02,-84.21 1017,-84.65"/>
</a>
</g>
</g>
<!-- Node31 -->
<g id="Node000031" class="node">
<title>Node31</title>
<g id="a_Node000031"><a xlink:href="cvar_8h.html" target="_top" xlink:title=" ">
<polygon fill="white" stroke="#666666" points="1178,-74 1132,-74 1132,-55 1178,-55 1178,-74"/>
<text text-anchor="middle" x="1155" y="-62" font-family="Helvetica,sans-Serif" font-size="10.00">cvar.h</text>
</a>
</g>
</g>
<!-- Node1&#45;&gt;Node31 -->
<g id="edge44_Node000001_Node000031" class="edge">
<title>Node1&#45;&gt;Node31</title>
<g id="a_edge44_Node000001_Node000031"><a xlink:title=" ">
<path fill="none" stroke="#63b8ff" d="M741.52,-172.65C829.25,-170.19 1037.4,-161.06 1099,-129 1118.89,-118.65 1134.97,-98.08 1144.71,-83.15"/>
<polygon fill="#63b8ff" stroke="#63b8ff" points="1147.89,-84.66 1150.17,-74.32 1141.93,-80.98 1147.89,-84.66"/>
</a>
</g>
</g>
<!-- Node32 -->
<g id="Node000032" class="node">
<title>Node32</title>
<g id="a_Node000032"><a xlink:href="console_8h.html" target="_top" xlink:title=" ">
<polygon fill="#fff0f0" stroke="red" points="985.5,-129 922.5,-129 922.5,-110 985.5,-110 985.5,-129"/>
<text text-anchor="middle" x="954" y="-117" font-family="Helvetica,sans-Serif" font-size="10.00">console.h</text>
</a>
</g>
</g>
<!-- Node1&#45;&gt;Node32 -->
<g id="edge46_Node000001_Node000032" class="edge">
<title>Node1&#45;&gt;Node32</title>
<g id="a_edge46_Node000001_Node000032"><a xlink:title=" ">
<path fill="none" stroke="#63b8ff" d="M741.65,-165.16C788.14,-155.38 864.84,-139.25 912.23,-129.29"/>
<polygon fill="#63b8ff" stroke="#63b8ff" points="913.09,-132.68 922.16,-127.2 911.65,-125.83 913.09,-132.68"/>
</a>
</g>
</g>
<!-- Node33 -->
<g id="Node000033" class="node">
<title>Node33</title>
<g id="a_Node000033"><a xlink:href="lhnet_8h.html" target="_top" xlink:title=" ">
<polygon fill="#fff0f0" stroke="red" points="934,-74 884,-74 884,-55 934,-55 934,-74"/>
<text text-anchor="middle" x="909" y="-62" font-family="Helvetica,sans-Serif" font-size="10.00">lhnet.h</text>
</a>
</g>
</g>
<!-- Node1&#45;&gt;Node33 -->
<g id="edge50_Node000001_Node000033" class="edge">
<title>Node1&#45;&gt;Node33</title>
<g id="a_edge50_Node000001_Node000033"><a xlink:title=" ">
<path fill="none" stroke="#63b8ff" d="M741.72,-168.22C774,-162.51 819.64,-151.07 854,-129 872.52,-117.1 888.32,-97.16 898.17,-82.8"/>
<polygon fill="#63b8ff" stroke="#63b8ff" points="901.19,-84.58 903.75,-74.3 895.34,-80.74 901.19,-84.58"/>
</a>
</g>
</g>
<!-- Node34 -->
<g id="Node000034" class="node">
<title>Node34</title>
<g id="a_Node000034"><a xlink:href="mathlib_8h.html" target="_top" xlink:title=" ">
<polygon fill="white" stroke="#666666" points="297.5,-74 234.5,-74 234.5,-55 297.5,-55 297.5,-74"/>
<text text-anchor="middle" x="266" y="-62" font-family="Helvetica,sans-Serif" font-size="10.00">mathlib.h</text>
</a>
</g>
</g>
<!-- Node1&#45;&gt;Node34 -->
<g id="edge51_Node000001_Node000034" class="edge">
<title>Node1&#45;&gt;Node34</title>
<g id="a_edge51_Node000001_Node000034"><a xlink:title=" ">
<path fill="none" stroke="#63b8ff" d="M662.05,-170.59C605.64,-165.75 499.84,-154 413,-129 401.02,-125.55 333.71,-95.78 294.45,-78.26"/>
<polygon fill="#63b8ff" stroke="#63b8ff" points="295.68,-74.97 285.13,-74.09 292.83,-81.36 295.68,-74.97"/>
</a>
</g>
</g>
<!-- Node35 -->
<g id="Node000035" class="node">
<title>Node35</title>
<g id="a_Node000035"><a xlink:href="matrixlib_8h.html" target="_top" xlink:title=" ">
<polygon fill="white" stroke="#666666" points="386,-74 316,-74 316,-55 386,-55 386,-74"/>
<text text-anchor="middle" x="351" y="-62" font-family="Helvetica,sans-Serif" font-size="10.00">matrixlib.h</text>
</a>
</g>
</g>
<!-- Node1&#45;&gt;Node35 -->
<g id="edge53_Node000001_Node000035" class="edge">
<title>Node1&#45;&gt;Node35</title>
<g id="a_edge53_Node000001_Node000035"><a xlink:title=" ">
<path fill="none" stroke="#63b8ff" d="M662.22,-170.69C612.77,-166.2 526.4,-155.1 457,-129 424.64,-116.83 391.02,-94.82 370.54,-80.18"/>
<polygon fill="#63b8ff" stroke="#63b8ff" points="372.51,-77.28 362.37,-74.22 368.39,-82.94 372.51,-77.28"/>
</a>
</g>
</g>
<!-- Node10&#45;&gt;Node11 -->
<g id="edge10_Node000010_Node000011" class="edge">
<title>Node10&#45;&gt;Node11</title>
<g id="a_edge10_Node000010_Node000011"><a xlink:title=" ">
<path fill="none" stroke="#63b8ff" d="M1195.81,-56.97C1192.87,-56.21 1189.87,-55.53 1187,-55 1017.18,-23.69 810.77,-14.2 725.63,-11.5"/>
<polygon fill="#63b8ff" stroke="#63b8ff" points="725.73,-8 715.62,-11.2 725.51,-15 725.73,-8"/>
</a>
</g>
</g>
<!-- Node10&#45;&gt;Node15 -->
<g id="edge11_Node000010_Node000015" class="edge">
<title>Node10&#45;&gt;Node15</title>
<g id="a_edge11_Node000010_Node000015"><a xlink:title=" ">
<path fill="none" stroke="#63b8ff" d="M1198.84,-54.98C1180.75,-46.5 1152.72,-33.35 1131.81,-23.54"/>
<polygon fill="#63b8ff" stroke="#63b8ff" points="1133.03,-20.25 1122.49,-19.17 1130.05,-26.59 1133.03,-20.25"/>
</a>
</g>
</g>
<!-- Node16&#45;&gt;Node11 -->
<g id="edge15_Node000016_Node000011" class="edge">
<title>Node16&#45;&gt;Node11</title>
<g id="a_edge15_Node000016_Node000011"><a xlink:title=" ">
<path fill="none" stroke="#63b8ff" d="M723.57,-54.75C717.15,-47.18 707.69,-36.05 699.88,-26.84"/>
<polygon fill="#63b8ff" stroke="#63b8ff" points="702.43,-24.45 693.29,-19.09 697.1,-28.98 702.43,-24.45"/>
</a>
</g>
</g>
<!-- Node16&#45;&gt;Node15 -->
<g id="edge16_Node000016_Node000015" class="edge">
<title>Node16&#45;&gt;Node15</title>
<g id="a_edge16_Node000016_Node000015"><a xlink:title=" ">
<path fill="none" stroke="#63b8ff" d="M755.76,-59.98C819.87,-50.87 991.5,-26.48 1067.23,-15.72"/>
<polygon fill="#63b8ff" stroke="#63b8ff" points="1067.85,-19.17 1077.26,-14.3 1066.87,-12.24 1067.85,-19.17"/>
</a>
</g>
</g>
<!-- Node20&#45;&gt;Node11 -->
<g id="edge18_Node000020_Node000011" class="edge">
<title>Node20&#45;&gt;Node11</title>
<g id="a_edge18_Node000020_Node000011"><a xlink:title=" ">
<path fill="none" stroke="#63b8ff" d="M599.55,-54.98C615.89,-46.57 641.13,-33.59 660.13,-23.81"/>
<polygon fill="#63b8ff" stroke="#63b8ff" points="661.86,-26.86 669.15,-19.17 658.66,-20.63 661.86,-26.86"/>
</a>
</g>
</g>
<!-- Node21&#45;&gt;Node15 -->
<g id="edge20_Node000021_Node000015" class="edge">
<title>Node21&#45;&gt;Node15</title>
<g id="a_edge20_Node000021_Node000015"><a xlink:title=" ">
<path fill="none" stroke="#63b8ff" d="M1297.05,-54.98C1254.11,-45.09 1183.69,-28.86 1140.82,-18.98"/>
<polygon fill="#63b8ff" stroke="#63b8ff" points="1141.33,-15.51 1130.8,-16.68 1139.76,-22.33 1141.33,-15.51"/>
</a>
</g>
</g>
<!-- Node22&#45;&gt;Node8 -->
<g id="edge23_Node000022_Node000008" class="edge">
<title>Node22&#45;&gt;Node8</title>
<g id="a_edge23_Node000022_Node000008"><a xlink:title=" ">
<path fill="none" stroke="#63b8ff" d="M788.64,-109.98C797.51,-102.15 810.87,-90.34 821.61,-80.86"/>
<polygon fill="#63b8ff" stroke="#63b8ff" points="824.01,-83.41 829.18,-74.17 819.37,-78.17 824.01,-83.41"/>
</a>
</g>
</g>
<!-- Node22&#45;&gt;Node11 -->
<g id="edge22_Node000022_Node000011" class="edge">
<title>Node22&#45;&gt;Node11</title>
<g id="a_edge22_Node000022_Node000011"><a xlink:title=" ">
<path fill="none" stroke="#63b8ff" d="M779.23,-109.79C779.14,-96.64 777.23,-71.51 765,-55 754.29,-40.54 737.4,-30.13 721.98,-23.02"/>
<polygon fill="#63b8ff" stroke="#63b8ff" points="723.21,-19.74 712.64,-19.02 720.46,-26.17 723.21,-19.74"/>
</a>
</g>
</g>
<!-- Node23&#45;&gt;Node6 -->
<g id="edge25_Node000023_Node000006" class="edge">
<title>Node23&#45;&gt;Node6</title>
<g id="a_edge25_Node000023_Node000006"><a xlink:title=" ">
<path fill="none" stroke="#63b8ff" d="M510.9,-109.98C496.18,-101.69 473.58,-88.94 456.33,-79.22"/>
<polygon fill="#63b8ff" stroke="#63b8ff" points="457.81,-76.03 447.38,-74.17 454.37,-82.13 457.81,-76.03"/>
</a>
</g>
</g>
<!-- Node23&#45;&gt;Node11 -->
<g id="edge26_Node000023_Node000011" class="edge">
<title>Node23&#45;&gt;Node11</title>
<g id="a_edge26_Node000023_Node000011"><a xlink:title=" ">
<path fill="none" stroke="#63b8ff" d="M520.01,-109.72C511.79,-96.48 499.4,-71.23 512,-55 528.31,-33.99 600.15,-21.22 646.27,-15.04"/>
<polygon fill="#63b8ff" stroke="#63b8ff" points="646.79,-18.5 656.26,-13.75 645.89,-11.56 646.79,-18.5"/>
</a>
</g>
</g>
<!-- Node23&#45;&gt;Node15 -->
<g id="edge27_Node000023_Node000015" class="edge">
<title>Node23&#45;&gt;Node15</title>
<g id="a_edge27_Node000023_Node000015"><a xlink:title=" ">
<path fill="none" stroke="#63b8ff" d="M525.9,-109.86C526.25,-95.85 529.18,-68.39 546,-55 586.63,-22.63 948.68,-13.29 1066.86,-11.09"/>
<polygon fill="#63b8ff" stroke="#63b8ff" points="1067.27,-14.58 1077.2,-10.9 1067.14,-7.58 1067.27,-14.58"/>
</a>
</g>
</g>
<!-- Node26&#45;&gt;Node11 -->
<g id="edge29_Node000026_Node000011" class="edge">
<title>Node26&#45;&gt;Node11</title>
<g id="a_edge29_Node000026_Node000011"><a xlink:title=" ">
<path fill="none" stroke="#63b8ff" d="M177.73,-57.08C182.52,-56.32 187.37,-55.6 192,-55 360.29,-33.15 562.22,-18.57 646.27,-13.01"/>
<polygon fill="#63b8ff" stroke="#63b8ff" points="646.65,-16.5 656.4,-12.35 646.19,-9.51 646.65,-16.5"/>
</a>
</g>
</g>
<!-- Node27&#45;&gt;Node6 -->
<g id="edge31_Node000027_Node000006" class="edge">
<title>Node27&#45;&gt;Node6</title>
<g id="a_edge31_Node000027_Node000006"><a xlink:title=" ">
<path fill="none" stroke="#63b8ff" d="M638.42,-114.34C602.32,-105.8 519.07,-86.1 470.04,-74.5"/>
<polygon fill="#63b8ff" stroke="#63b8ff" points="470.66,-71.05 460.12,-72.15 469.05,-77.86 470.66,-71.05"/>
</a>
</g>
</g>
<!-- Node27&#45;&gt;Node11 -->
<g id="edge32_Node000027_Node000011" class="edge">
<title>Node27&#45;&gt;Node11</title>
<g id="a_edge32_Node000027_Node000011"><a xlink:title=" ">
<path fill="none" stroke="#63b8ff" d="M656.19,-109.68C656.66,-97.24 658.3,-73.94 664,-55 666.82,-45.61 671.48,-35.78 675.79,-27.75"/>
<polygon fill="#63b8ff" stroke="#63b8ff" points="678.85,-29.44 680.71,-19.01 672.76,-26 678.85,-29.44"/>
</a>
</g>
</g>
<!-- Node27&#45;&gt;Node15 -->
<g id="edge33_Node000027_Node000015" class="edge">
<title>Node27&#45;&gt;Node15</title>
<g id="a_edge33_Node000027_Node000015"><a xlink:title=" ">
<path fill="none" stroke="#63b8ff" d="M659,-109.73C664.35,-95.52 677.01,-67.8 698,-55 759.51,-17.47 979.25,-11.48 1067.21,-10.61"/>
<polygon fill="#63b8ff" stroke="#63b8ff" points="1067.29,-14.11 1077.26,-10.53 1067.24,-7.11 1067.29,-14.11"/>
</a>
</g>
</g>
<!-- Node27&#45;&gt;Node16 -->
<g id="edge34_Node000027_Node000016" class="edge">
<title>Node27&#45;&gt;Node16</title>
<g id="a_edge34_Node000027_Node000016"><a xlink:title=" ">
<path fill="none" stroke="#63b8ff" d="M668.05,-109.98C679.46,-101.92 696.83,-89.65 710.43,-80.03"/>
<polygon fill="#63b8ff" stroke="#63b8ff" points="712.58,-82.8 718.73,-74.17 708.54,-77.08 712.58,-82.8"/>
</a>
</g>
</g>
<!-- Node28&#45;&gt;Node11 -->
<g id="edge36_Node000028_Node000011" class="edge">
<title>Node28&#45;&gt;Node11</title>
<g id="a_edge36_Node000028_Node000011"><a xlink:title=" ">
<path fill="none" stroke="#63b8ff" d="M1066.18,-109.95C1065.97,-96.07 1063.35,-68.81 1047,-55 999.23,-14.65 809.35,-10.1 725.8,-10.11"/>
<polygon fill="#63b8ff" stroke="#63b8ff" points="725.68,-6.61 715.68,-10.13 725.69,-13.61 725.68,-6.61"/>
</a>
</g>
</g>
<!-- Node28&#45;&gt;Node15 -->
<g id="edge37_Node000028_Node000015" class="edge">
<title>Node28&#45;&gt;Node15</title>
<g id="a_edge37_Node000028_Node000015"><a xlink:title=" ">
<path fill="none" stroke="#63b8ff" d="M1069.11,-109.66C1075.32,-92.01 1089.37,-52.09 1097.62,-28.64"/>
<polygon fill="#63b8ff" stroke="#63b8ff" points="1100.94,-29.75 1100.95,-19.16 1094.33,-27.43 1100.94,-29.75"/>
</a>
</g>
</g>
<!-- Node28&#45;&gt;Node30 -->
<g id="edge38_Node000028_Node000030" class="edge">
<title>Node28&#45;&gt;Node30</title>
<g id="a_edge38_Node000028_Node000030"><a xlink:title=" ">
<path fill="none" stroke="#63b8ff" d="M1057.41,-109.75C1049.84,-102.03 1038.62,-90.6 1029.49,-81.28"/>
<polygon fill="#63b8ff" stroke="#63b8ff" points="1031.93,-78.78 1022.43,-74.09 1026.93,-83.68 1031.93,-78.78"/>
</a>
</g>
</g>
<!-- Node28&#45;&gt;Node31 -->
<g id="edge41_Node000028_Node000031" class="edge">
<title>Node28&#45;&gt;Node31</title>
<g id="a_edge41_Node000028_Node000031"><a xlink:title=" ">
<path fill="none" stroke="#63b8ff" d="M1080.3,-109.98C1094.1,-101.77 1115.24,-89.18 1131.51,-79.49"/>
<polygon fill="#63b8ff" stroke="#63b8ff" points="1133.64,-82.29 1140.44,-74.17 1130.06,-76.28 1133.64,-82.29"/>
</a>
</g>
</g>
<!-- Node30&#45;&gt;Node11 -->
<g id="edge39_Node000030_Node000011" class="edge">
<title>Node30&#45;&gt;Node11</title>
<g id="a_edge39_Node000030_Node000011"><a xlink:title=" ">
<path fill="none" stroke="#63b8ff" d="M990.33,-57.95C985.6,-56.91 980.65,-55.88 976,-55 887.12,-38.26 782.03,-23.33 725.96,-15.76"/>
<polygon fill="#63b8ff" stroke="#63b8ff" points="726.13,-12.25 715.75,-14.39 725.2,-19.19 726.13,-12.25"/>
</a>
</g>
</g>
<!-- Node30&#45;&gt;Node15 -->
<g id="edge40_Node000030_Node000015" class="edge">
<title>Node30&#45;&gt;Node15</title>
<g id="a_edge40_Node000030_Node000015"><a xlink:title=" ">
<path fill="none" stroke="#63b8ff" d="M1028.46,-54.98C1042.42,-46.77 1063.79,-34.18 1080.25,-24.49"/>
<polygon fill="#63b8ff" stroke="#63b8ff" points="1082.44,-27.26 1089.28,-19.17 1078.88,-21.23 1082.44,-27.26"/>
</a>
</g>
</g>
<!-- Node31&#45;&gt;Node11 -->
<g id="edge42_Node000031_Node000011" class="edge">
<title>Node31&#45;&gt;Node11</title>
<g id="a_edge42_Node000031_Node000011"><a xlink:title=" ">
<path fill="none" stroke="#63b8ff" d="M1131.69,-60.86C1116.89,-59.18 1097.32,-56.96 1080,-55 950.53,-40.35 797.12,-23.04 725.95,-15.01"/>
<polygon fill="#63b8ff" stroke="#63b8ff" points="725.99,-11.49 715.66,-13.85 725.2,-18.44 725.99,-11.49"/>
</a>
</g>
</g>
<!-- Node31&#45;&gt;Node15 -->
<g id="edge43_Node000031_Node000015" class="edge">
<title>Node31&#45;&gt;Node15</title>
<g id="a_edge43_Node000031_Node000015"><a xlink:title=" ">
<path fill="none" stroke="#63b8ff" d="M1146.58,-54.75C1139.23,-47.11 1128.37,-35.82 1119.46,-26.56"/>
<polygon fill="#63b8ff" stroke="#63b8ff" points="1121.72,-23.87 1112.26,-19.09 1116.68,-28.72 1121.72,-23.87"/>
</a>
</g>
</g>
<!-- Node32&#45;&gt;Node11 -->
<g id="edge47_Node000032_Node000011" class="edge">
<title>Node32&#45;&gt;Node11</title>
<g id="a_edge47_Node000032_Node000011"><a xlink:title=" ">
<path fill="none" stroke="#63b8ff" d="M955.33,-109.71C956.87,-95.99 957.56,-69.56 943,-55 913.12,-25.13 790.24,-15.16 725.82,-11.95"/>
<polygon fill="#63b8ff" stroke="#63b8ff" points="725.79,-8.45 715.63,-11.48 725.46,-15.44 725.79,-8.45"/>
</a>
</g>
</g>
<!-- Node32&#45;&gt;Node30 -->
<g id="edge48_Node000032_Node000030" class="edge">
<title>Node32&#45;&gt;Node30</title>
<g id="a_edge48_Node000032_Node000030"><a xlink:title=" ">
<path fill="none" stroke="#63b8ff" d="M963.64,-109.98C972.51,-102.15 985.87,-90.34 996.61,-80.86"/>
<polygon fill="#63b8ff" stroke="#63b8ff" points="999.01,-83.41 1004.18,-74.17 994.37,-78.17 999.01,-83.41"/>
</a>
</g>
</g>
<!-- Node32&#45;&gt;Node33 -->
<g id="edge49_Node000032_Node000033" class="edge">
<title>Node32&#45;&gt;Node33</title>
<g id="a_edge49_Node000032_Node000033"><a xlink:title=" ">
<path fill="none" stroke="#63b8ff" d="M946.57,-109.75C940.15,-102.18 930.69,-91.05 922.88,-81.84"/>
<polygon fill="#63b8ff" stroke="#63b8ff" points="925.43,-79.45 916.29,-74.09 920.1,-83.98 925.43,-79.45"/>
</a>
</g>
</g>
<!-- Node34&#45;&gt;Node11 -->
<g id="edge52_Node000034_Node000011" class="edge">
<title>Node34&#45;&gt;Node11</title>
<g id="a_edge52_Node000034_Node000011"><a xlink:title=" ">
<path fill="none" stroke="#63b8ff" d="M297.73,-56.64C300.86,-56.05 303.99,-55.49 307,-55 430.16,-35.04 577.23,-20.36 646.37,-14"/>
<polygon fill="#63b8ff" stroke="#63b8ff" points="646.75,-17.48 656.39,-13.09 646.12,-10.51 646.75,-17.48"/>
</a>
</g>
</g>
<!-- Node35&#45;&gt;Node11 -->
<g id="edge54_Node000035_Node000011" class="edge">
<title>Node35&#45;&gt;Node11</title>
<g id="a_edge54_Node000035_Node000011"><a xlink:title=" ">
<path fill="none" stroke="#63b8ff" d="M386.04,-56.6C389.07,-56.05 392.09,-55.5 395,-55 484.42,-39.53 589.79,-24.11 645.96,-16.12"/>
<polygon fill="#63b8ff" stroke="#63b8ff" points="646.79,-19.54 656.19,-14.67 645.8,-12.61 646.79,-19.54"/>
</a>
</g>
</g>
</g>
</svg>

<g id="navigator" transform="translate(0 0)" fill="#404254">
  <rect fill="#f2f5e9" fill-opacity="0.5" stroke="#606060" stroke-width=".5" x="0" y="0" width="60" height="60"/>
  <use id="zoomplus" xlink:href="#zoomPlus" x="17" y="9" data-zoom="in"/>
  <use id="zoomminus" xlink:href="#zoomMin" x="42" y="9" data-zoom="out"/>
  <use id="reset" xlink:href="#resetDef" x="30" y="36" data-reset="true"/>
  <use id="arrowup" xlink:href="#arrowUp" x="0" y="0" data-pan-x="0" data-pan-y="-1"/>
  <use id="arrowright" xlink:href="#arrowRight" x="0" y="0" data-pan-x="1" data-pan-y="0"/>
  <use id="arrowdown" xlink:href="#arrowDown" x="0" y="0" data-pan-x="0" data-pan-y="1"/>
  <use id="arrowleft" xlink:href="#arrowLeft" x="0" y="0" data-pan-x="-1" data-pan-y="0"/>
</g>
<svg viewBox="0 0 15 15" width="100%" height="30px" preserveAspectRatio="xMaxYMin meet">
 <g id="arrow_out" transform="scale(0.3 0.3)">
  <a xlink:href="darkplaces_8h__incl_org.svg" target="_base">
   <rect id="button" ry="5" rx="5" y="6" x="6" height="38" width="38"
        fill="#f2f5e9" fill-opacity="0.5" stroke="#606060" stroke-width="1.0"/>
   <path id="arrow"
     d="M 11.500037,31.436501 C 11.940474,20.09759 22.043105,11.32322 32.158766,21.979434 L 37.068811,17.246167 C 37.068811,17.246167 37.088388,32 37.088388,32 L 22.160133,31.978069 C 22.160133,31.978069 26.997745,27.140456 26.997745,27.140456 C 18.528582,18.264221 13.291696,25.230495 11.500037,31.436501 z"
     style="fill:#404040;"/>
  </a>
 </g>
</svg>

<style type='text/css'>
<![CDATA[
[data-mouse-over-selected='false'] { opacity: 0.7; }
[data-mouse-over-selected='true']  { opacity: 1.0; }
]]>
</style>
</svg>
