<?xml version="1.0" encoding="UTF-8" standalone="no"?>
<!DOCTYPE svg PUBLIC "-//W3C//DTD SVG 1.1//EN"
 "http://www.w3.org/Graphics/SVG/1.1/DTD/svg11.dtd">
<!-- Generated by graphviz version 2.43.0 (0)
 -->
<!-- Title: void Pages: 1 -->
<svg width="231pt" height="121pt"
 viewBox="0.00 0.00 231.00 121.00" xmlns="http://www.w3.org/2000/svg" xmlns:xlink="http://www.w3.org/1999/xlink">

<svg id="main" version="1.1" xmlns="http://www.w3.org/2000/svg" xmlns:xlink="http://www.w3.org/1999/xlink" xml:space="preserve">

<style type="text/css"><![CDATA[
.node, .edge {opacity: 0.7;}
.node.selected, .edge.selected {opacity: 1;}
.edge:hover path { stroke: red; }
.edge:hover polygon { stroke: red; fill: red; }
]]></style>
<script type="application/ecmascript" xlink:href="svg.min.js"/>
<svg id="graph" class="graph">
<g id="graph0" class="graph" transform="scale(1 1) rotate(0) translate(4 117)">
<title>void</title>
<!-- Node1 -->
<g id="Node000001" class="node">
<title>Node1</title>
<g id="a_Node000001"><a xlink:title=" ">
<polygon fill="#999999" stroke="#666666" points="38,-57 0,-57 0,-38 38,-38 38,-57"/>
<text text-anchor="middle" x="19" y="-45" font-family="Helvetica,sans-Serif" font-size="10.00">void</text>
</a>
</g>
</g>
<!-- Node2 -->
<g id="Node000002" class="node">
<title>Node2</title>
<g id="a_Node000002"><a xlink:href="menudefs_8qc.html#a1196d544e0b4dbb479f05cc4c6cc5516" target="_top" xlink:title=" ">
<polygon fill="white" stroke="#666666" points="142,-95 74,-95 74,-76 142,-76 142,-95"/>
<text text-anchor="middle" x="108" y="-83" font-family="Helvetica,sans-Serif" font-size="10.00">copyentity</text>
</a>
</g>
</g>
<!-- Node1&#45;&gt;Node2 -->
<g id="edge1_Node000001_Node000002" class="edge">
<title>Node1&#45;&gt;Node2</title>
<g id="a_edge1_Node000001_Node000002"><a xlink:title=" ">
<path fill="none" stroke="#63b8ff" d="M38.03,-55.37C48.89,-60.12 63.04,-66.3 75.68,-71.82"/>
<polygon fill="#63b8ff" stroke="#63b8ff" points="74.42,-75.09 84.98,-75.88 77.22,-68.67 74.42,-75.09"/>
</a>
</g>
</g>
<!-- Node3 -->
<g id="Node000003" class="node">
<title>Node3</title>
<g id="a_Node000003"><a xlink:href="csprogsdefs_8qc.html#acbb54a239d76062465dccbc6a6c6e464" target="_top" xlink:title=" ">
<polygon fill="#fff0f0" stroke="red" points="223,-76 178,-76 178,-57 223,-57 223,-76"/>
<text text-anchor="middle" x="200.5" y="-64" font-family="Helvetica,sans-Serif" font-size="10.00">entity</text>
</a>
</g>
</g>
<!-- Node1&#45;&gt;Node3 -->
<g id="edge5_Node000001_Node000003" class="edge">
<title>Node1&#45;&gt;Node3</title>
<g id="a_edge5_Node000001_Node000003"><a xlink:title=" ">
<path fill="none" stroke="#63b8ff" d="M38.2,-49.43C68.54,-52.64 129.83,-59.13 167.51,-63.11"/>
<polygon fill="#63b8ff" stroke="#63b8ff" points="167.61,-66.64 177.93,-64.22 168.35,-59.68 167.61,-66.64"/>
</a>
</g>
</g>
<!-- Node5 -->
<g id="Node000005" class="node">
<title>Node5</title>
<g id="a_Node000005"><a xlink:href="csprogsdefs_8qc.html#a861812a9e61c694f182b9f2b1cd4bb06" target="_top" xlink:title=" ">
<polygon fill="white" stroke="#666666" points="127,-19 89,-19 89,0 127,0 127,-19"/>
<text text-anchor="middle" x="108" y="-7" font-family="Helvetica,sans-Serif" font-size="10.00">void</text>
</a>
</g>
</g>
<!-- Node1&#45;&gt;Node5 -->
<g id="edge6_Node000001_Node000005" class="edge">
<title>Node1&#45;&gt;Node5</title>
<g id="a_edge6_Node000001_Node000005"><a xlink:title=" ">
<path fill="none" stroke="#63b8ff" d="M38.03,-39.63C50.04,-34.38 66.06,-27.38 79.64,-21.45"/>
<polygon fill="#63b8ff" stroke="#63b8ff" points="81.23,-24.57 89,-17.36 78.43,-18.16 81.23,-24.57"/>
</a>
</g>
</g>
<!-- Node2&#45;&gt;Node2 -->
<g id="edge2_Node000002_Node000002" class="edge">
<title>Node2&#45;&gt;Node2</title>
<g id="a_edge2_Node000002_Node000002"><a xlink:title=" ">
<path fill="none" stroke="#63b8ff" d="M94.44,-95.08C87.84,-103.73 92.36,-113 108,-113 117.53,-113 122.93,-109.56 124.21,-104.91"/>
<polygon fill="#63b8ff" stroke="#63b8ff" points="127.54,-103.83 121.56,-95.08 120.78,-105.65 127.54,-103.83"/>
</a>
</g>
</g>
<!-- Node2&#45;&gt;Node3 -->
<g id="edge3_Node000002_Node000003" class="edge">
<title>Node2&#45;&gt;Node3</title>
<g id="a_edge3_Node000002_Node000003"><a xlink:title=" ">
<path fill="none" stroke="#63b8ff" d="M142.18,-78.53C150.56,-76.78 159.52,-74.89 167.82,-73.15"/>
<polygon fill="#63b8ff" stroke="#63b8ff" points="168.8,-76.52 177.87,-71.04 167.36,-69.67 168.8,-76.52"/>
</a>
</g>
</g>
<!-- Node3&#45;&gt;Node3 -->
<g id="edge4_Node000003_Node000003" class="edge">
<title>Node3&#45;&gt;Node3</title>
<g id="a_edge4_Node000003_Node000003"><a xlink:title=" ">
<path fill="none" stroke="#63b8ff" d="M186.32,-76.08C179.42,-84.73 184.15,-94 200.5,-94 210.46,-94 216.11,-90.56 217.44,-85.91"/>
<polygon fill="#63b8ff" stroke="#63b8ff" points="220.75,-84.76 214.68,-76.08 214.02,-86.66 220.75,-84.76"/>
</a>
</g>
</g>
</g>
</svg>
</svg>

<style type='text/css'>
<![CDATA[
[data-mouse-over-selected='false'] { opacity: 0.7; }
[data-mouse-over-selected='true']  { opacity: 1.0; }
]]>
</style>
</svg>
