<?xml version="1.0" encoding="UTF-8" standalone="no"?>
<!DOCTYPE svg PUBLIC "-//W3C//DTD SVG 1.1//EN"
 "http://www.w3.org/Graphics/SVG/1.1/DTD/svg11.dtd">
<!-- Generated by graphviz version 2.43.0 (0)
 -->
<!-- Title: DrawQ_Start Pages: 1 -->
<svg width="265pt" height="56pt"
 viewBox="0.00 0.00 265.00 56.00" xmlns="http://www.w3.org/2000/svg" xmlns:xlink="http://www.w3.org/1999/xlink">

<svg id="main" version="1.1" xmlns="http://www.w3.org/2000/svg" xmlns:xlink="http://www.w3.org/1999/xlink" xml:space="preserve">

<style type="text/css"><![CDATA[
.node, .edge {opacity: 0.7;}
.node.selected, .edge.selected {opacity: 1;}
.edge:hover path { stroke: red; }
.edge:hover polygon { stroke: red; fill: red; }
]]></style>
<script type="application/ecmascript" xlink:href="svg.min.js"/>
<svg id="graph" class="graph">
<g id="graph0" class="graph" transform="scale(1 1) rotate(0) translate(4 52)">
<title>DrawQ_Start</title>
<!-- Node1 -->
<g id="Node000001" class="node">
<title>Node1</title>
<g id="a_Node000001"><a xlink:title=" ">
<polygon fill="#999999" stroke="#666666" points="78,-24.5 0,-24.5 0,-5.5 78,-5.5 78,-24.5"/>
<text text-anchor="middle" x="39" y="-12.5" font-family="Helvetica,sans-Serif" font-size="10.00">DrawQ_Start</text>
</a>
</g>
</g>
<!-- Node1&#45;&gt;Node1 -->
<g id="edge1_Node000001_Node000001" class="edge">
<title>Node1&#45;&gt;Node1</title>
<g id="a_edge1_Node000001_Node000001"><a xlink:title=" ">
<path fill="none" stroke="#63b8ff" d="M16.5,-24.58C5.55,-33.23 13.05,-42.5 39,-42.5 55.62,-42.5 64.68,-38.7 66.16,-33.69"/>
<polygon fill="#63b8ff" stroke="#63b8ff" points="69.17,-31.89 61.5,-24.58 62.94,-35.08 69.17,-31.89"/>
</a>
</g>
</g>
<!-- Node2 -->
<g id="Node000002" class="node">
<title>Node2</title>
<g id="a_Node000002"><a xlink:href="gl__rmain_8c.html#a93517bfc2b040f9e5db1fa1fa55c5500" target="_top" xlink:title=" ">
<polygon fill="#fff0f0" stroke="red" points="257,-30 114,-30 114,0 257,0 257,-30"/>
<text text-anchor="start" x="122" y="-18" font-family="Helvetica,sans-Serif" font-size="10.00">R_ResetViewRendering2D</text>
<text text-anchor="middle" x="185.5" y="-7" font-family="Helvetica,sans-Serif" font-size="10.00">_Common</text>
</a>
</g>
</g>
<!-- Node1&#45;&gt;Node2 -->
<g id="edge2_Node000001_Node000002" class="edge">
<title>Node1&#45;&gt;Node2</title>
<g id="a_edge2_Node000001_Node000002"><a xlink:title=" ">
<path fill="none" stroke="#63b8ff" d="M78.34,-15C86.3,-15 94.97,-15 103.81,-15"/>
<polygon fill="#63b8ff" stroke="#63b8ff" points="103.83,-18.5 113.83,-15 103.83,-11.5 103.83,-18.5"/>
</a>
</g>
</g>
<!-- Node2&#45;&gt;Node2 -->
<g id="edge3_Node000002_Node000002" class="edge">
<title>Node2&#45;&gt;Node2</title>
<g id="a_edge3_Node000002_Node000002"><a xlink:title=" ">
<path fill="none" stroke="#63b8ff" d="M159.84,-30.28C154.13,-39.41 162.69,-48 185.5,-48 199.04,-48 207.56,-44.97 211.06,-40.6"/>
<polygon fill="#63b8ff" stroke="#63b8ff" points="214.56,-40.31 211.16,-30.28 207.56,-40.24 214.56,-40.31"/>
</a>
</g>
</g>
</g>
</svg>
</svg>

<style type='text/css'>
<![CDATA[
[data-mouse-over-selected='false'] { opacity: 0.7; }
[data-mouse-over-selected='true']  { opacity: 1.0; }
]]>
</style>
</svg>
