<?xml version="1.0" encoding="UTF-8" standalone="no"?>
<!DOCTYPE svg PUBLIC "-//W3C//DTD SVG 1.1//EN"
 "http://www.w3.org/Graphics/SVG/1.1/DTD/svg11.dtd">
<!-- Generated by graphviz version 2.43.0 (0)
 -->
<!-- Title: R_FreeTexture Pages: 1 -->
<svg width="309pt" height="167pt"
 viewBox="0.00 0.00 309.00 167.00" xmlns="http://www.w3.org/2000/svg" xmlns:xlink="http://www.w3.org/1999/xlink">
<g id="page0,1_graph0" class="graph" transform="scale(1 1) rotate(0) translate(4 163)">
<title>R_FreeTexture</title>
<!-- Node1 -->
<g id="Node000001" class="node">
<title>Node1</title>
<g id="a_Node000001"><a xlink:title=" ">
<polygon fill="#999999" stroke="#666666" points="86,-80 0,-80 0,-61 86,-61 86,-80"/>
<text text-anchor="middle" x="43" y="-68" font-family="Helvetica,sans-Serif" font-size="10.00">R_FreeTexture</text>
</a>
</g>
</g>
<!-- Node1&#45;&gt;Node1 -->
<g id="edge5_Node000001_Node000001" class="edge">
<title>Node1&#45;&gt;Node1</title>
<g id="a_edge5_Node000001_Node000001"><a xlink:title=" ">
<path fill="none" stroke="#63b8ff" d="M17.11,-80.08C4.51,-88.73 13.14,-98 43,-98 63.06,-98 73.54,-93.82 74.44,-88.45"/>
<polygon fill="#63b8ff" stroke="#63b8ff" points="77.34,-86.49 68.89,-80.08 71.5,-90.35 77.34,-86.49"/>
</a>
</g>
</g>
<!-- Node2 -->
<g id="Node000002" class="node">
<title>Node2</title>
<g id="a_Node000002"><a xlink:href="host_8c.html#a6207a721d43b13be42aa21a2bb4d3350" target="_top" xlink:title=" ">
<polygon fill="#fff0f0" stroke="red" points="245.5,-141 177.5,-141 177.5,-122 245.5,-122 245.5,-141"/>
<text text-anchor="middle" x="211.5" y="-129" font-family="Helvetica,sans-Serif" font-size="10.00">Host_Error</text>
</a>
</g>
</g>
<!-- Node1&#45;&gt;Node2 -->
<g id="edge1_Node000001_Node000002" class="edge">
<title>Node1&#45;&gt;Node2</title>
<g id="a_edge1_Node000001_Node000002"><a xlink:title=" ">
<path fill="none" stroke="#63b8ff" d="M58.65,-80.02C73.9,-89.54 98.76,-103.95 122,-112.5 136.24,-117.74 152.33,-121.73 166.85,-124.67"/>
<polygon fill="#63b8ff" stroke="#63b8ff" points="166.61,-128.19 177.09,-126.63 167.92,-121.31 166.61,-128.19"/>
</a>
</g>
</g>
<!-- Node272 -->
<g id="Node000272" class="node">
<title>Node272</title>
<g id="a_Node000272"><a xlink:href="zone_8c.html#a6809e6e38abd59c5583dc9b83843a7ee" target="_top" xlink:title=" ">
<polygon fill="#fff0f0" stroke="red" points="276.5,-85.5 146.5,-85.5 146.5,-55.5 276.5,-55.5 276.5,-85.5"/>
<text text-anchor="start" x="154.5" y="-73.5" font-family="Helvetica,sans-Serif" font-size="10.00">Mem_ExpandableArray</text>
<text text-anchor="middle" x="211.5" y="-62.5" font-family="Helvetica,sans-Serif" font-size="10.00">_FreeRecord</text>
</a>
</g>
</g>
<!-- Node1&#45;&gt;Node272 -->
<g id="edge3_Node000001_Node000272" class="edge">
<title>Node1&#45;&gt;Node272</title>
<g id="a_edge3_Node000001_Node000272"><a xlink:title=" ">
<path fill="none" stroke="#63b8ff" d="M86.01,-70.5C101.32,-70.5 119.1,-70.5 136.36,-70.5"/>
<polygon fill="#63b8ff" stroke="#63b8ff" points="136.44,-74 146.44,-70.5 136.44,-67 136.44,-74"/>
</a>
</g>
</g>
<!-- Node1349 -->
<g id="Node001349" class="node">
<title>Node1349</title>
<g id="a_Node001349"><a xlink:href="gl__backend_8c.html#a67dc91856064908ccadf5e03ed78fc1d" target="_top" xlink:title=" ">
<polygon fill="#fff0f0" stroke="red" points="301,-19 122,-19 122,0 301,0 301,-19"/>
<text text-anchor="middle" x="211.5" y="-7" font-family="Helvetica,sans-Serif" font-size="10.00">R_Mesh_ClearBindingsForTexture</text>
</a>
</g>
</g>
<!-- Node1&#45;&gt;Node1349 -->
<g id="edge6_Node000001_Node001349" class="edge">
<title>Node1&#45;&gt;Node1349</title>
<g id="a_edge6_Node000001_Node001349"><a xlink:title=" ">
<path fill="none" stroke="#63b8ff" d="M70.02,-60.97C98.16,-50.66 143.21,-34.15 174.69,-22.62"/>
<polygon fill="#63b8ff" stroke="#63b8ff" points="176.21,-25.79 184.39,-19.06 173.8,-19.22 176.21,-25.79"/>
</a>
</g>
</g>
<!-- Node2&#45;&gt;Node2 -->
<g id="edge2_Node000002_Node000002" class="edge">
<title>Node2&#45;&gt;Node2</title>
<g id="a_edge2_Node000002_Node000002"><a xlink:title=" ">
<path fill="none" stroke="#63b8ff" d="M185.61,-141.08C173.01,-149.73 181.64,-159 211.5,-159 231.56,-159 242.04,-154.82 242.94,-149.45"/>
<polygon fill="#63b8ff" stroke="#63b8ff" points="245.84,-147.49 237.39,-141.08 240,-151.35 245.84,-147.49"/>
</a>
</g>
</g>
<!-- Node272&#45;&gt;Node272 -->
<g id="edge4_Node000272_Node000272" class="edge">
<title>Node272&#45;&gt;Node272</title>
<g id="a_edge4_Node000272_Node000272"><a xlink:title=" ">
<path fill="none" stroke="#63b8ff" d="M181.97,-85.78C175.41,-94.91 185.25,-103.5 211.5,-103.5 227.09,-103.5 236.89,-100.47 240.91,-96.1"/>
<polygon fill="#63b8ff" stroke="#63b8ff" points="244.41,-95.82 241.03,-85.78 237.41,-95.73 244.41,-95.82"/>
</a>
</g>
</g>
<!-- Node1349&#45;&gt;Node1349 -->
<g id="edge7_Node001349_Node001349" class="edge">
<title>Node1349&#45;&gt;Node1349</title>
<g id="a_edge7_Node001349_Node001349"><a xlink:title=" ">
<path fill="none" stroke="#63b8ff" d="M185.61,-19.08C173.01,-27.73 181.64,-37 211.5,-37 231.56,-37 242.04,-32.82 242.94,-27.45"/>
<polygon fill="#63b8ff" stroke="#63b8ff" points="245.84,-25.49 237.39,-19.08 240,-29.35 245.84,-25.49"/>
</a>
</g>
</g>
</g>
</svg>
