<?xml version="1.0" encoding="UTF-8" standalone="no"?>
<!DOCTYPE svg PUBLIC "-//W3C//DTD SVG 1.1//EN"
 "http://www.w3.org/Graphics/SVG/1.1/DTD/svg11.dtd">
<!-- Generated by graphviz version 2.43.0 (0)
 -->
<!-- Title: GL_Draw_Init Pages: 1 -->
<svg width="250pt" height="430pt"
 viewBox="0.00 0.00 250.00 430.00" xmlns="http://www.w3.org/2000/svg" xmlns:xlink="http://www.w3.org/1999/xlink">
<g id="page0,1_graph0" class="graph" transform="scale(1 1) rotate(0) translate(4 426)">
<title>GL_Draw_Init</title>
<!-- Node1 -->
<g id="Node000001" class="node">
<title>Node1</title>
<g id="a_Node000001"><a xlink:title=" ">
<polygon fill="#999999" stroke="#666666" points="81,-211 0,-211 0,-192 81,-192 81,-211"/>
<text text-anchor="middle" x="40.5" y="-199" font-family="Helvetica,sans-Serif" font-size="10.00">GL_Draw_Init</text>
</a>
</g>
</g>
<!-- Node1&#45;&gt;Node1 -->
<g id="edge7_Node000001_Node000001" class="edge">
<title>Node1&#45;&gt;Node1</title>
<g id="a_edge7_Node000001_Node000001"><a xlink:title=" ">
<path fill="none" stroke="#63b8ff" d="M19.23,-211.08C8.88,-219.73 15.97,-229 40.5,-229 56.21,-229 64.77,-225.2 66.17,-220.19"/>
<polygon fill="#63b8ff" stroke="#63b8ff" points="69.27,-218.56 61.77,-211.08 62.97,-221.61 69.27,-218.56"/>
</a>
</g>
</g>
<!-- Node2 -->
<g id="Node000002" class="node">
<title>Node2</title>
<g id="a_Node000002"><a xlink:href="cmd_8c.html#a86fa905462db75436af48f27298204e5" target="_top" xlink:title="called by the init functions of other parts of the program to register commands and functions to call...">
<polygon fill="#fff0f0" stroke="red" points="236,-404 123,-404 123,-385 236,-385 236,-404"/>
<text text-anchor="middle" x="179.5" y="-392" font-family="Helvetica,sans-Serif" font-size="10.00">Cmd_AddCommand</text>
</a>
</g>
</g>
<!-- Node1&#45;&gt;Node2 -->
<g id="edge1_Node000001_Node000002" class="edge">
<title>Node1&#45;&gt;Node2</title>
<g id="a_edge1_Node000001_Node000002"><a xlink:title=" ">
<path fill="none" stroke="#63b8ff" d="M42.77,-211.11C47.16,-240.51 64.45,-330.03 117,-376.5 118.32,-377.67 119.71,-378.76 121.15,-379.78"/>
<polygon fill="#63b8ff" stroke="#63b8ff" points="119.57,-382.9 129.98,-384.88 123.08,-376.84 119.57,-382.9"/>
</a>
</g>
</g>
<!-- Node1352 -->
<g id="Node001352" class="node">
<title>Node1352</title>
<g id="a_Node001352"><a xlink:href="cvar_8c.html#a9bd27026ed325ffe5276549c11c7379d" target="_top" xlink:title="registers a cvar that already has the name, string, and optionally the archive elements set.">
<polygon fill="#fff0f0" stroke="red" points="242,-349 117,-349 117,-330 242,-330 242,-349"/>
<text text-anchor="middle" x="179.5" y="-337" font-family="Helvetica,sans-Serif" font-size="10.00">Cvar_RegisterVariable</text>
</a>
</g>
</g>
<!-- Node1&#45;&gt;Node1352 -->
<g id="edge3_Node000001_Node001352" class="edge">
<title>Node1&#45;&gt;Node1352</title>
<g id="a_edge3_Node000001_Node001352"><a xlink:title=" ">
<path fill="none" stroke="#63b8ff" d="M44.87,-211.27C53.26,-234.14 77.33,-291.53 117,-321.5 118.84,-322.89 120.78,-324.17 122.8,-325.36"/>
<polygon fill="#63b8ff" stroke="#63b8ff" points="121.54,-328.64 132.06,-329.94 124.65,-322.36 121.54,-328.64"/>
</a>
</g>
</g>
<!-- Node24 -->
<g id="Node000024" class="node">
<title>Node24</title>
<g id="a_Node000024"><a xlink:href="common_8c.html#ae36050083f45e395189fee6aa45fbb0c" target="_top" xlink:title="Returns the number of printed characters, excluding the final &#39;\0&#39; or returns &#45;1 if the buffer isn&#39;t ...">
<polygon fill="#fff0f0" stroke="red" points="212.5,-294 146.5,-294 146.5,-275 212.5,-275 212.5,-294"/>
<text text-anchor="middle" x="179.5" y="-282" font-family="Helvetica,sans-Serif" font-size="10.00">dpsnprintf</text>
</a>
</g>
</g>
<!-- Node1&#45;&gt;Node24 -->
<g id="edge5_Node000001_Node000024" class="edge">
<title>Node1&#45;&gt;Node24</title>
<g id="a_edge5_Node000001_Node000024"><a xlink:title=" ">
<path fill="none" stroke="#63b8ff" d="M50.28,-211.35C63.43,-225.54 89.64,-251.64 117,-266.5 123.04,-269.78 129.75,-272.53 136.45,-274.81"/>
<polygon fill="#63b8ff" stroke="#63b8ff" points="135.6,-278.21 146.19,-277.82 137.67,-271.52 135.6,-278.21"/>
</a>
</g>
</g>
<!-- Node1353 -->
<g id="Node001353" class="node">
<title>Node1353</title>
<g id="a_Node001353"><a xlink:href="gl__draw_8c.html#aa50d0d549779b6499347f7453756fc33" target="_top" xlink:title=" ">
<polygon fill="#fff0f0" stroke="red" points="230.5,-239 128.5,-239 128.5,-220 230.5,-220 230.5,-239"/>
<text text-anchor="middle" x="179.5" y="-227" font-family="Helvetica,sans-Serif" font-size="10.00">gl_draw_newmap</text>
</a>
</g>
</g>
<!-- Node1&#45;&gt;Node1353 -->
<g id="edge8_Node000001_Node001353" class="edge">
<title>Node1&#45;&gt;Node1353</title>
<g id="a_edge8_Node000001_Node001353"><a xlink:title=" ">
<path fill="none" stroke="#63b8ff" d="M81.13,-209.6C93.84,-212.2 108.19,-215.13 121.88,-217.93"/>
<polygon fill="#63b8ff" stroke="#63b8ff" points="121.2,-221.36 131.7,-219.93 122.6,-214.5 121.2,-221.36"/>
</a>
</g>
</g>
<!-- Node1355 -->
<g id="Node001355" class="node">
<title>Node1355</title>
<g id="a_Node001355"><a xlink:href="gl__draw_8c.html#a8b5a98ed28c36a225519f49549acea51" target="_top" xlink:title=" ">
<polygon fill="#fff0f0" stroke="red" points="233,-184 126,-184 126,-165 233,-165 233,-184"/>
<text text-anchor="middle" x="179.5" y="-172" font-family="Helvetica,sans-Serif" font-size="10.00">gl_draw_shutdown</text>
</a>
</g>
</g>
<!-- Node1&#45;&gt;Node1355 -->
<g id="edge10_Node000001_Node001355" class="edge">
<title>Node1&#45;&gt;Node1355</title>
<g id="a_edge10_Node000001_Node001355"><a xlink:title=" ">
<path fill="none" stroke="#63b8ff" d="M81.13,-193.69C93.34,-191.28 107.06,-188.58 120.26,-185.98"/>
<polygon fill="#63b8ff" stroke="#63b8ff" points="121.08,-189.38 130.21,-184.02 119.73,-182.52 121.08,-189.38"/>
</a>
</g>
</g>
<!-- Node1361 -->
<g id="Node001361" class="node">
<title>Node1361</title>
<g id="a_Node001361"><a xlink:href="gl__draw_8c.html#a6e27757dc4687df6405275269439c967" target="_top" xlink:title=" ">
<polygon fill="#fff0f0" stroke="red" points="221,-129 138,-129 138,-110 221,-110 221,-129"/>
<text text-anchor="middle" x="179.5" y="-117" font-family="Helvetica,sans-Serif" font-size="10.00">gl_draw_start</text>
</a>
</g>
</g>
<!-- Node1&#45;&gt;Node1361 -->
<g id="edge12_Node000001_Node001361" class="edge">
<title>Node1&#45;&gt;Node1361</title>
<g id="a_edge12_Node000001_Node001361"><a xlink:title=" ">
<path fill="none" stroke="#63b8ff" d="M57.48,-191.93C81.2,-177.74 125.91,-150.98 153.84,-134.26"/>
<polygon fill="#63b8ff" stroke="#63b8ff" points="155.84,-137.14 162.62,-129.01 152.24,-131.14 155.84,-137.14"/>
</a>
</g>
</g>
<!-- Node1372 -->
<g id="Node001372" class="node">
<title>Node1372</title>
<g id="a_Node001372"><a xlink:href="gl__draw_8c.html#a31ca04c0ddd563f070533a6488419c1b" target="_top" xlink:title=" ">
<polygon fill="#fff0f0" stroke="red" points="214.5,-74 144.5,-74 144.5,-55 214.5,-55 214.5,-74"/>
<text text-anchor="middle" x="179.5" y="-62" font-family="Helvetica,sans-Serif" font-size="10.00">LoadFont_f</text>
</a>
</g>
</g>
<!-- Node1&#45;&gt;Node1372 -->
<g id="edge14_Node000001_Node001372" class="edge">
<title>Node1&#45;&gt;Node1372</title>
<g id="a_edge14_Node000001_Node001372"><a xlink:title=" ">
<path fill="none" stroke="#63b8ff" d="M47.12,-191.71C58.45,-172.6 85.63,-129.73 117,-101.5 126.6,-92.86 138.51,-85.15 149.28,-79.04"/>
<polygon fill="#63b8ff" stroke="#63b8ff" points="151.26,-81.94 158.37,-74.09 147.91,-75.8 151.26,-81.94"/>
</a>
</g>
</g>
<!-- Node1374 -->
<g id="Node001374" class="node">
<title>Node1374</title>
<g id="a_Node001374"><a xlink:href="r__modules_8c.html#a7f982eee49a26b26f015596ac96edea0" target="_top" xlink:title=" ">
<polygon fill="#fff0f0" stroke="red" points="232,-19 127,-19 127,0 232,0 232,-19"/>
<text text-anchor="middle" x="179.5" y="-7" font-family="Helvetica,sans-Serif" font-size="10.00">R_RegisterModule</text>
</a>
</g>
</g>
<!-- Node1&#45;&gt;Node1374 -->
<g id="edge16_Node000001_Node001374" class="edge">
<title>Node1&#45;&gt;Node1374</title>
<g id="a_edge16_Node000001_Node001374"><a xlink:title=" ">
<path fill="none" stroke="#63b8ff" d="M44.14,-191.66C51.62,-165.34 75.17,-92.2 117,-46.5 125.39,-37.33 136.59,-29.69 147.12,-23.77"/>
<polygon fill="#63b8ff" stroke="#63b8ff" points="148.91,-26.79 156.12,-19.03 145.65,-20.6 148.91,-26.79"/>
</a>
</g>
</g>
<!-- Node2&#45;&gt;Node2 -->
<g id="edge2_Node000002_Node000002" class="edge">
<title>Node2&#45;&gt;Node2</title>
<g id="a_edge2_Node000002_Node000002"><a xlink:title=" ">
<path fill="none" stroke="#63b8ff" d="M158.23,-404.08C147.88,-412.73 154.97,-422 179.5,-422 195.21,-422 203.77,-418.2 205.17,-413.19"/>
<polygon fill="#63b8ff" stroke="#63b8ff" points="208.27,-411.56 200.77,-404.08 201.97,-414.61 208.27,-411.56"/>
</a>
</g>
</g>
<!-- Node1352&#45;&gt;Node1352 -->
<g id="edge4_Node001352_Node001352" class="edge">
<title>Node1352&#45;&gt;Node1352</title>
<g id="a_edge4_Node001352_Node001352"><a xlink:title=" ">
<path fill="none" stroke="#63b8ff" d="M158.23,-349.08C147.88,-357.73 154.97,-367 179.5,-367 195.21,-367 203.77,-363.2 205.17,-358.19"/>
<polygon fill="#63b8ff" stroke="#63b8ff" points="208.27,-356.56 200.77,-349.08 201.97,-359.61 208.27,-356.56"/>
</a>
</g>
</g>
<!-- Node24&#45;&gt;Node24 -->
<g id="edge6_Node000024_Node000024" class="edge">
<title>Node24&#45;&gt;Node24</title>
<g id="a_edge6_Node000024_Node000024"><a xlink:title=" ">
<path fill="none" stroke="#63b8ff" d="M158.23,-294.08C147.88,-302.73 154.97,-312 179.5,-312 195.21,-312 203.77,-308.2 205.17,-303.19"/>
<polygon fill="#63b8ff" stroke="#63b8ff" points="208.27,-301.56 200.77,-294.08 201.97,-304.61 208.27,-301.56"/>
</a>
</g>
</g>
<!-- Node1353&#45;&gt;Node1353 -->
<g id="edge9_Node001353_Node001353" class="edge">
<title>Node1353&#45;&gt;Node1353</title>
<g id="a_edge9_Node001353_Node001353"><a xlink:title=" ">
<path fill="none" stroke="#63b8ff" d="M158.23,-239.08C147.88,-247.73 154.97,-257 179.5,-257 195.21,-257 203.77,-253.2 205.17,-248.19"/>
<polygon fill="#63b8ff" stroke="#63b8ff" points="208.27,-246.56 200.77,-239.08 201.97,-249.61 208.27,-246.56"/>
</a>
</g>
</g>
<!-- Node1355&#45;&gt;Node1355 -->
<g id="edge11_Node001355_Node001355" class="edge">
<title>Node1355&#45;&gt;Node1355</title>
<g id="a_edge11_Node001355_Node001355"><a xlink:title=" ">
<path fill="none" stroke="#63b8ff" d="M158.23,-184.08C147.88,-192.73 154.97,-202 179.5,-202 195.21,-202 203.77,-198.2 205.17,-193.19"/>
<polygon fill="#63b8ff" stroke="#63b8ff" points="208.27,-191.56 200.77,-184.08 201.97,-194.61 208.27,-191.56"/>
</a>
</g>
</g>
<!-- Node1361&#45;&gt;Node1361 -->
<g id="edge13_Node001361_Node001361" class="edge">
<title>Node1361&#45;&gt;Node1361</title>
<g id="a_edge13_Node001361_Node001361"><a xlink:title=" ">
<path fill="none" stroke="#63b8ff" d="M158.23,-129.08C147.88,-137.73 154.97,-147 179.5,-147 195.21,-147 203.77,-143.2 205.17,-138.19"/>
<polygon fill="#63b8ff" stroke="#63b8ff" points="208.27,-136.56 200.77,-129.08 201.97,-139.61 208.27,-136.56"/>
</a>
</g>
</g>
<!-- Node1372&#45;&gt;Node1372 -->
<g id="edge15_Node001372_Node001372" class="edge">
<title>Node1372&#45;&gt;Node1372</title>
<g id="a_edge15_Node001372_Node001372"><a xlink:title=" ">
<path fill="none" stroke="#63b8ff" d="M158.23,-74.08C147.88,-82.73 154.97,-92 179.5,-92 195.21,-92 203.77,-88.2 205.17,-83.19"/>
<polygon fill="#63b8ff" stroke="#63b8ff" points="208.27,-81.56 200.77,-74.08 201.97,-84.61 208.27,-81.56"/>
</a>
</g>
</g>
<!-- Node1374&#45;&gt;Node1374 -->
<g id="edge17_Node001374_Node001374" class="edge">
<title>Node1374&#45;&gt;Node1374</title>
<g id="a_edge17_Node001374_Node001374"><a xlink:title=" ">
<path fill="none" stroke="#63b8ff" d="M158.23,-19.08C147.88,-27.73 154.97,-37 179.5,-37 195.21,-37 203.77,-33.2 205.17,-28.19"/>
<polygon fill="#63b8ff" stroke="#63b8ff" points="208.27,-26.56 200.77,-19.08 201.97,-29.61 208.27,-26.56"/>
</a>
</g>
</g>
</g>
</svg>
