<?xml version="1.0" encoding="UTF-8" standalone="no"?>
<!DOCTYPE svg PUBLIC "-//W3C//DTD SVG 1.1//EN"
 "http://www.w3.org/Graphics/SVG/1.1/DTD/svg11.dtd">
<!-- Generated by graphviz version 2.43.0 (0)
 -->
<!-- Title: entity Pages: 1 -->
<svg width="205pt" height="73pt"
 viewBox="0.00 0.00 205.00 73.00" xmlns="http://www.w3.org/2000/svg" xmlns:xlink="http://www.w3.org/1999/xlink">
<g id="page0,1_graph0" class="graph" transform="scale(1 1) rotate(0) translate(4 69)">
<title>entity</title>
<!-- Node1 -->
<g id="Node000001" class="node">
<title>Node1</title>
<g id="a_Node000001"><a xlink:title=" ">
<polygon fill="#999999" stroke="#666666" points="45,-47 0,-47 0,-28 45,-28 45,-47"/>
<text text-anchor="middle" x="22.5" y="-35" font-family="Helvetica,sans-Serif" font-size="10.00">entity</text>
</a>
</g>
</g>
<!-- Node2 -->
<g id="Node000002" class="node">
<title>Node2</title>
<g id="a_Node000002"><a xlink:href="csprogsdefs_8qc.html#acbb54a239d76062465dccbc6a6c6e464" target="_top" xlink:title=" ">
<polygon fill="#fff0f0" stroke="red" points="197,-47 152,-47 152,-28 197,-28 197,-47"/>
<text text-anchor="middle" x="174.5" y="-35" font-family="Helvetica,sans-Serif" font-size="10.00">entity</text>
</a>
</g>
</g>
<!-- Node1&#45;&gt;Node2 -->
<g id="edge1_Node000001_Node000002" class="edge">
<title>Node1&#45;&gt;Node2</title>
<g id="a_edge1_Node000001_Node000002"><a xlink:title=" ">
<path fill="none" stroke="#63b8ff" d="M45.25,-41.72C55.97,-43.59 69.11,-45.58 81,-46.5 96.51,-47.71 100.49,-47.71 116,-46.5 124.36,-45.85 133.34,-44.68 141.66,-43.39"/>
<polygon fill="#63b8ff" stroke="#63b8ff" points="142.45,-46.8 151.75,-41.72 141.31,-39.9 142.45,-46.8"/>
</a>
</g>
</g>
<!-- Node4 -->
<g id="Node000004" class="node">
<title>Node4</title>
<g id="a_Node000004"><a xlink:href="menudefs_8qc.html#a53c4a8e7afd17cad92bc00adba96bb78" target="_top" xlink:title=" ">
<polygon fill="white" stroke="#666666" points="116,-19 81,-19 81,0 116,0 116,-19"/>
<text text-anchor="middle" x="98.5" y="-7" font-family="Helvetica,sans-Serif" font-size="10.00">find</text>
</a>
</g>
</g>
<!-- Node1&#45;&gt;Node4 -->
<g id="edge3_Node000001_Node000004" class="edge">
<title>Node1&#45;&gt;Node4</title>
<g id="a_edge3_Node000001_Node000004"><a xlink:title=" ">
<path fill="none" stroke="#63b8ff" d="M45.3,-29.25C53.39,-26.19 62.65,-22.68 71.11,-19.49"/>
<polygon fill="#63b8ff" stroke="#63b8ff" points="72.43,-22.73 80.55,-15.91 69.95,-16.18 72.43,-22.73"/>
</a>
</g>
</g>
<!-- Node2&#45;&gt;Node2 -->
<g id="edge2_Node000002_Node000002" class="edge">
<title>Node2&#45;&gt;Node2</title>
<g id="a_edge2_Node000002_Node000002"><a xlink:title=" ">
<path fill="none" stroke="#63b8ff" d="M162.79,-47.08C157.09,-55.73 160.99,-65 174.5,-65 182.73,-65 187.4,-61.56 188.5,-56.91"/>
<polygon fill="#63b8ff" stroke="#63b8ff" points="191.88,-56.03 186.21,-47.08 185.07,-57.62 191.88,-56.03"/>
</a>
</g>
</g>
<!-- Node4&#45;&gt;Node2 -->
<g id="edge4_Node000004_Node000002" class="edge">
<title>Node4&#45;&gt;Node2</title>
<g id="a_edge4_Node000004_Node000002"><a xlink:title=" ">
<path fill="none" stroke="#63b8ff" d="M116.29,-15.85C124.06,-18.79 133.54,-22.38 142.53,-25.78"/>
<polygon fill="#63b8ff" stroke="#63b8ff" points="141.4,-29.1 151.99,-29.36 143.88,-22.55 141.4,-29.1"/>
</a>
</g>
</g>
<!-- Node4&#45;&gt;Node4 -->
<g id="edge5_Node000004_Node000004" class="edge">
<title>Node4&#45;&gt;Node4</title>
<g id="a_edge5_Node000004_Node000004"><a xlink:title=" ">
<path fill="none" stroke="#63b8ff" d="M86.79,-19.08C81.09,-27.73 84.99,-37 98.5,-37 106.73,-37 111.4,-33.56 112.5,-28.91"/>
<polygon fill="#63b8ff" stroke="#63b8ff" points="115.88,-28.03 110.21,-19.08 109.07,-29.62 115.88,-28.03"/>
</a>
</g>
</g>
</g>
</svg>
