<?xml version="1.0" encoding="UTF-8" standalone="no"?>
<!DOCTYPE svg PUBLIC "-//W3C//DTD SVG 1.1//EN"
 "http://www.w3.org/Graphics/SVG/1.1/DTD/svg11.dtd">
<!-- Generated by graphviz version 2.43.0 (0)
 -->
<!-- Title: PRVM_ChildProfile_f Pages: 1 -->
<svg width="426pt" height="278pt"
 viewBox="0.00 0.00 426.00 277.61" xmlns="http://www.w3.org/2000/svg" xmlns:xlink="http://www.w3.org/1999/xlink">
<g id="page0,1_graph0" class="graph" transform="scale(1 1) rotate(0) translate(4 273.61)">
<title>PRVM_ChildProfile_f</title>
<!-- Node1 -->
<g id="Node000001" class="node">
<title>Node1</title>
<g id="a_Node000001"><a xlink:title=" ">
<polygon fill="#999999" stroke="#666666" points="115,-149 0,-149 0,-130 115,-130 115,-149"/>
<text text-anchor="middle" x="57.5" y="-137" font-family="Helvetica,sans-Serif" font-size="10.00">PRVM_ChildProfile_f</text>
</a>
</g>
</g>
<!-- Node2 -->
<g id="Node000002" class="node">
<title>Node2</title>
<g id="a_Node000002"><a xlink:href="menudefs_8qc.html#a977f9318008de123876b168dfa86ad22" target="_top" xlink:title=" ">
<polygon fill="white" stroke="#666666" points="403.5,-223 365.5,-223 365.5,-204 403.5,-204 403.5,-223"/>
<text text-anchor="middle" x="384.5" y="-211" font-family="Helvetica,sans-Serif" font-size="10.00">cmd</text>
</a>
</g>
</g>
<!-- Node1&#45;&gt;Node2 -->
<g id="edge1_Node000001_Node000002" class="edge">
<title>Node1&#45;&gt;Node2</title>
<g id="a_edge1_Node000001_Node000002"><a xlink:title=" ">
<path fill="none" stroke="#63b8ff" d="M62.82,-149.03C73.74,-171.76 104.89,-228.9 151,-250.5 217.01,-281.42 244.33,-268.37 315,-250.5 331.77,-246.26 348.88,-237.02 361.81,-228.83"/>
<polygon fill="#63b8ff" stroke="#63b8ff" points="364.01,-231.57 370.42,-223.14 360.15,-225.73 364.01,-231.57"/>
</a>
</g>
</g>
<!-- Node3 -->
<g id="Node000003" class="node">
<title>Node3</title>
<g id="a_Node000003"><a xlink:href="console_8c.html#a1cf9711475097b11dc41f743254ec77e" target="_top" xlink:title="Prints to all appropriate console targets, and adds timestamps.">
<polygon fill="#fff0f0" stroke="red" points="264.5,-223 201.5,-223 201.5,-204 264.5,-204 264.5,-223"/>
<text text-anchor="middle" x="233" y="-211" font-family="Helvetica,sans-Serif" font-size="10.00">Con_Print</text>
</a>
</g>
</g>
<!-- Node1&#45;&gt;Node3 -->
<g id="edge3_Node000001_Node000003" class="edge">
<title>Node1&#45;&gt;Node3</title>
<g id="a_edge3_Node000001_Node000003"><a xlink:title=" ">
<path fill="none" stroke="#63b8ff" d="M71.26,-149.1C88.48,-161.59 120.51,-183.27 151,-195.5 163.66,-200.58 178.04,-204.36 191.13,-207.12"/>
<polygon fill="#63b8ff" stroke="#63b8ff" points="190.81,-210.62 201.29,-209.11 192.15,-203.75 190.81,-210.62"/>
</a>
</g>
</g>
<!-- Node15 -->
<g id="Node000015" class="node">
<title>Node15</title>
<g id="a_Node000015"><a xlink:href="console_8c.html#a49b71fe9a87e57a440e07af4a869a9f6" target="_top" xlink:title="Prints to all appropriate console targets.">
<polygon fill="#fff0f0" stroke="red" points="418,-74 351,-74 351,-55 418,-55 418,-74"/>
<text text-anchor="middle" x="384.5" y="-62" font-family="Helvetica,sans-Serif" font-size="10.00">Con_Printf</text>
</a>
</g>
</g>
<!-- Node1&#45;&gt;Node15 -->
<g id="edge5_Node000001_Node000015" class="edge">
<title>Node1&#45;&gt;Node15</title>
<g id="a_edge5_Node000001_Node000015"><a xlink:title=" ">
<path fill="none" stroke="#63b8ff" d="M115.09,-136.76C167.95,-132.9 248.47,-123.63 315,-101.5 331,-96.18 347.67,-87.26 360.56,-79.51"/>
<polygon fill="#63b8ff" stroke="#63b8ff" points="362.56,-82.39 369.21,-74.15 358.87,-76.44 362.56,-82.39"/>
</a>
</g>
</g>
<!-- Node1351 -->
<g id="Node001351" class="node">
<title>Node1351</title>
<g id="a_Node001351"><a xlink:href="progsvm_8h.html#a3f5966caa56c6e130e35ff369fb0fe65" target="_top" xlink:title=" ">
<polygon fill="white" stroke="#666666" points="290.5,-168 175.5,-168 175.5,-149 290.5,-149 290.5,-168"/>
<text text-anchor="middle" x="233" y="-156" font-family="Helvetica,sans-Serif" font-size="10.00">PRVM_ChildProfile_f</text>
</a>
</g>
</g>
<!-- Node1&#45;&gt;Node1351 -->
<g id="edge7_Node000001_Node001351" class="edge">
<title>Node1&#45;&gt;Node1351</title>
<g id="a_edge7_Node000001_Node001351"><a xlink:title=" ">
<path fill="none" stroke="#63b8ff" d="M115.31,-145.72C131.27,-147.47 148.77,-149.39 165.25,-151.19"/>
<polygon fill="#63b8ff" stroke="#63b8ff" points="165.04,-154.69 175.36,-152.3 165.8,-147.73 165.04,-154.69"/>
</a>
</g>
</g>
<!-- Node1352 -->
<g id="Node001352" class="node">
<title>Node1352</title>
<g id="a_Node001352"><a xlink:href="prvm__edict_8c.html#a8e0ed6694761d617ff94437802a513bd" target="_top" xlink:title="for console commands (prints error if name unknown and returns NULL, prints error if prog not loaded ...">
<polygon fill="#fff0f0" stroke="red" points="315,-74 151,-74 151,-55 315,-55 315,-74"/>
<text text-anchor="middle" x="233" y="-62" font-family="Helvetica,sans-Serif" font-size="10.00">PRVM_FriendlyProgFromString</text>
</a>
</g>
</g>
<!-- Node1&#45;&gt;Node1352 -->
<g id="edge10_Node000001_Node001352" class="edge">
<title>Node1&#45;&gt;Node1352</title>
<g id="a_edge10_Node000001_Node001352"><a xlink:title=" ">
<path fill="none" stroke="#63b8ff" d="M80.83,-129.85C111.28,-116.69 165.99,-93.03 200.58,-78.08"/>
<polygon fill="#63b8ff" stroke="#63b8ff" points="201.97,-81.3 209.76,-74.11 199.19,-74.87 201.97,-81.3"/>
</a>
</g>
</g>
<!-- Node1354 -->
<g id="Node001354" class="node">
<title>Node1354</title>
<g id="a_Node001354"><a xlink:href="prvm__exec_8c.html#ab78329cf0815fce74ac791192d04a9c9" target="_top" xlink:title=" ">
<polygon fill="#fff0f0" stroke="red" points="273.5,-19 192.5,-19 192.5,0 273.5,0 273.5,-19"/>
<text text-anchor="middle" x="233" y="-7" font-family="Helvetica,sans-Serif" font-size="10.00">PRVM_Profile</text>
</a>
</g>
</g>
<!-- Node1&#45;&gt;Node1354 -->
<g id="edge13_Node000001_Node001354" class="edge">
<title>Node1&#45;&gt;Node1354</title>
<g id="a_edge13_Node000001_Node001354"><a xlink:title=" ">
<path fill="none" stroke="#63b8ff" d="M65.95,-129.8C80.55,-111.31 114.68,-70.66 151,-45.5 164.16,-36.39 179.99,-28.74 194.16,-22.86"/>
<polygon fill="#63b8ff" stroke="#63b8ff" points="195.65,-26.04 203.64,-19.09 193.06,-19.53 195.65,-26.04"/>
</a>
</g>
</g>
<!-- Node2&#45;&gt;Node2 -->
<g id="edge2_Node000002_Node000002" class="edge">
<title>Node2&#45;&gt;Node2</title>
<g id="a_edge2_Node000002_Node000002"><a xlink:title=" ">
<path fill="none" stroke="#63b8ff" d="M365.27,-220.54C348.79,-229.81 355.2,-241 384.5,-241 406.93,-241 415.94,-234.44 411.54,-227.21"/>
<polygon fill="#63b8ff" stroke="#63b8ff" points="413.61,-224.37 403.73,-220.54 409.06,-229.7 413.61,-224.37"/>
</a>
</g>
</g>
<!-- Node3&#45;&gt;Node3 -->
<g id="edge4_Node000003_Node000003" class="edge">
<title>Node3&#45;&gt;Node3</title>
<g id="a_edge4_Node000003_Node000003"><a xlink:title=" ">
<path fill="none" stroke="#63b8ff" d="M209.88,-223.08C198.63,-231.73 206.34,-241 233,-241 250.5,-241 259.83,-237.01 261,-231.82"/>
<polygon fill="#63b8ff" stroke="#63b8ff" points="264.05,-230.11 256.12,-223.08 257.94,-233.52 264.05,-230.11"/>
</a>
</g>
</g>
<!-- Node15&#45;&gt;Node15 -->
<g id="edge6_Node000015_Node000015" class="edge">
<title>Node15&#45;&gt;Node15</title>
<g id="a_edge6_Node000015_Node000015"><a xlink:title=" ">
<path fill="none" stroke="#63b8ff" d="M361.38,-74.08C350.13,-82.73 357.84,-92 384.5,-92 402,-92 411.33,-88.01 412.5,-82.82"/>
<polygon fill="#63b8ff" stroke="#63b8ff" points="415.55,-81.11 407.62,-74.08 409.44,-84.52 415.55,-81.11"/>
</a>
</g>
</g>
<!-- Node1351&#45;&gt;Node2 -->
<g id="edge8_Node001351_Node000002" class="edge">
<title>Node1351&#45;&gt;Node2</title>
<g id="a_edge8_Node001351_Node000002"><a xlink:title=" ">
<path fill="none" stroke="#63b8ff" d="M260.04,-168.08C286.86,-177.95 328.51,-193.27 355.89,-203.34"/>
<polygon fill="#63b8ff" stroke="#63b8ff" points="354.69,-206.63 365.28,-206.8 357.1,-200.06 354.69,-206.63"/>
</a>
</g>
</g>
<!-- Node1351&#45;&gt;Node1351 -->
<g id="edge9_Node001351_Node001351" class="edge">
<title>Node1351&#45;&gt;Node1351</title>
<g id="a_edge9_Node001351_Node001351"><a xlink:title=" ">
<path fill="none" stroke="#63b8ff" d="M209.88,-168.08C198.63,-176.73 206.34,-186 233,-186 250.5,-186 259.83,-182.01 261,-176.82"/>
<polygon fill="#63b8ff" stroke="#63b8ff" points="264.05,-175.11 256.12,-168.08 257.94,-178.52 264.05,-175.11"/>
</a>
</g>
</g>
<!-- Node1352&#45;&gt;Node15 -->
<g id="edge11_Node001352_Node000015" class="edge">
<title>Node1352&#45;&gt;Node15</title>
<g id="a_edge11_Node001352_Node000015"><a xlink:title=" ">
<path fill="none" stroke="#63b8ff" d="M315.31,-64.5C324.07,-64.5 332.71,-64.5 340.75,-64.5"/>
<polygon fill="#63b8ff" stroke="#63b8ff" points="340.92,-68 350.92,-64.5 340.92,-61 340.92,-68"/>
</a>
</g>
</g>
<!-- Node1352&#45;&gt;Node1352 -->
<g id="edge12_Node001352_Node001352" class="edge">
<title>Node1352&#45;&gt;Node1352</title>
<g id="a_edge12_Node001352_Node001352"><a xlink:title=" ">
<path fill="none" stroke="#63b8ff" d="M209.88,-74.08C198.63,-82.73 206.34,-92 233,-92 250.5,-92 259.83,-88.01 261,-82.82"/>
<polygon fill="#63b8ff" stroke="#63b8ff" points="264.05,-81.11 256.12,-74.08 257.94,-84.52 264.05,-81.11"/>
</a>
</g>
</g>
<!-- Node1354&#45;&gt;Node15 -->
<g id="edge14_Node001354_Node000015" class="edge">
<title>Node1354&#45;&gt;Node15</title>
<g id="a_edge14_Node001354_Node000015"><a xlink:title=" ">
<path fill="none" stroke="#63b8ff" d="M260.04,-19.08C284.4,-28.04 321,-41.51 348.02,-51.45"/>
<polygon fill="#63b8ff" stroke="#63b8ff" points="346.91,-54.77 357.51,-54.94 349.33,-48.2 346.91,-54.77"/>
</a>
</g>
</g>
<!-- Node1354&#45;&gt;Node1354 -->
<g id="edge15_Node001354_Node001354" class="edge">
<title>Node1354&#45;&gt;Node1354</title>
<g id="a_edge15_Node001354_Node001354"><a xlink:title=" ">
<path fill="none" stroke="#63b8ff" d="M209.88,-19.08C198.63,-27.73 206.34,-37 233,-37 250.5,-37 259.83,-33.01 261,-27.82"/>
<polygon fill="#63b8ff" stroke="#63b8ff" points="264.05,-26.11 256.12,-19.08 257.94,-29.52 264.05,-26.11"/>
</a>
</g>
</g>
</g>
</svg>
