<?xml version="1.0" encoding="UTF-8" standalone="no"?>
<!DOCTYPE svg PUBLIC "-//W3C//DTD SVG 1.1//EN"
 "http://www.w3.org/Graphics/SVG/1.1/DTD/svg11.dtd">
<!-- Generated by graphviz version 2.43.0 (0)
 -->
<!-- Title: R_Shadow_DrawCursor_TransparentCallback Pages: 1 -->
<svg width="318pt" height="155pt"
 viewBox="0.00 0.00 318.00 155.00" xmlns="http://www.w3.org/2000/svg" xmlns:xlink="http://www.w3.org/1999/xlink">

<svg id="main" version="1.1" xmlns="http://www.w3.org/2000/svg" xmlns:xlink="http://www.w3.org/1999/xlink" xml:space="preserve">

<style type="text/css"><![CDATA[
.node, .edge {opacity: 0.7;}
.node.selected, .edge.selected {opacity: 1;}
.edge:hover path { stroke: red; }
.edge:hover polygon { stroke: red; fill: red; }
]]></style>
<script type="application/ecmascript" xlink:href="svg.min.js"/>
<svg id="graph" class="graph">
<g id="graph0" class="graph" transform="scale(1 1) rotate(0) translate(4 151)">
<title>R_Shadow_DrawCursor_TransparentCallback</title>
<!-- Node1 -->
<g id="Node000001" class="node">
<title>Node1</title>
<g id="a_Node000001"><a xlink:title=" ">
<polygon fill="#999999" stroke="#666666" points="129,-79.5 0,-79.5 0,-49.5 129,-49.5 129,-79.5"/>
<text text-anchor="start" x="8" y="-67.5" font-family="Helvetica,sans-Serif" font-size="10.00">R_Shadow_DrawCursor</text>
<text text-anchor="middle" x="64.5" y="-56.5" font-family="Helvetica,sans-Serif" font-size="10.00">_TransparentCallback</text>
</a>
</g>
</g>
<!-- Node1&#45;&gt;Node1 -->
<g id="edge5_Node000001_Node000001" class="edge">
<title>Node1&#45;&gt;Node1</title>
<g id="a_edge5_Node000001_Node000001"><a xlink:title=" ">
<path fill="none" stroke="#63b8ff" d="M34.27,-79.78C27.55,-88.91 37.62,-97.5 64.5,-97.5 80.46,-97.5 90.49,-94.47 94.61,-90.1"/>
<polygon fill="#63b8ff" stroke="#63b8ff" points="98.11,-89.82 94.73,-79.78 91.11,-89.73 98.11,-89.82"/>
</a>
</g>
</g>
<!-- Node2 -->
<g id="Node000002" class="node">
<title>Node2</title>
<g id="a_Node000002"><a xlink:href="gl__rmain_8c.html#ab095e44ba81e415f6b29e8a3bf0fb7e7" target="_top" xlink:title=" ">
<polygon fill="white" stroke="#666666" points="300,-129 175,-129 175,-110 300,-110 300,-129"/>
<text text-anchor="middle" x="237.5" y="-117" font-family="Helvetica,sans-Serif" font-size="10.00">R_CalcSprite_Vertex3f</text>
</a>
</g>
</g>
<!-- Node1&#45;&gt;Node2 -->
<g id="edge1_Node000001_Node000002" class="edge">
<title>Node1&#45;&gt;Node2</title>
<g id="a_edge1_Node000001_Node000002"><a xlink:title=" ">
<path fill="none" stroke="#63b8ff" d="M102.96,-79.54C121.47,-86.68 144.23,-95.05 165,-101.5 171.57,-103.54 178.53,-105.52 185.44,-107.37"/>
<polygon fill="#63b8ff" stroke="#63b8ff" points="184.89,-110.85 195.45,-109.98 186.66,-104.07 184.89,-110.85"/>
</a>
</g>
</g>
<!-- Node3 -->
<g id="Node000003" class="node">
<title>Node3</title>
<g id="a_Node000003"><a xlink:href="gl__rmain_8c.html#a36f19cdd7a555b8122917b8c887d7750" target="_top" xlink:title=" ">
<polygon fill="#fff0f0" stroke="red" points="301.5,-74 173.5,-74 173.5,-55 301.5,-55 301.5,-74"/>
<text text-anchor="middle" x="237.5" y="-62" font-family="Helvetica,sans-Serif" font-size="10.00">R_DrawCustomSurface</text>
</a>
</g>
</g>
<!-- Node1&#45;&gt;Node3 -->
<g id="edge3_Node000001_Node000003" class="edge">
<title>Node1&#45;&gt;Node3</title>
<g id="a_edge3_Node000001_Node000003"><a xlink:title=" ">
<path fill="none" stroke="#63b8ff" d="M129.17,-64.5C140.22,-64.5 151.8,-64.5 163.08,-64.5"/>
<polygon fill="#63b8ff" stroke="#63b8ff" points="163.34,-68 173.34,-64.5 163.34,-61 163.34,-68"/>
</a>
</g>
</g>
<!-- Node654 -->
<g id="Node000654" class="node">
<title>Node654</title>
<g id="a_Node000654"><a xlink:href="gl__rmain_8c.html#af224655903019505e9e0a05624281315" target="_top" xlink:title=" ">
<polygon fill="#fff0f0" stroke="red" points="310,-19 165,-19 165,0 310,0 310,-19"/>
<text text-anchor="middle" x="237.5" y="-7" font-family="Helvetica,sans-Serif" font-size="10.00">RSurf_ActiveCustomEntity</text>
</a>
</g>
</g>
<!-- Node1&#45;&gt;Node654 -->
<g id="edge6_Node000001_Node000654" class="edge">
<title>Node1&#45;&gt;Node654</title>
<g id="a_edge6_Node000001_Node000654"><a xlink:title=" ">
<path fill="none" stroke="#63b8ff" d="M112.23,-49.47C138.85,-40.91 171.84,-30.3 197.14,-22.16"/>
<polygon fill="#63b8ff" stroke="#63b8ff" points="198.33,-25.45 206.78,-19.06 196.18,-18.79 198.33,-25.45"/>
</a>
</g>
</g>
<!-- Node2&#45;&gt;Node2 -->
<g id="edge2_Node000002_Node000002" class="edge">
<title>Node2&#45;&gt;Node2</title>
<g id="a_edge2_Node000002_Node000002"><a xlink:title=" ">
<path fill="none" stroke="#63b8ff" d="M210.99,-129.08C198.09,-137.73 206.93,-147 237.5,-147 258.04,-147 268.77,-142.82 269.69,-137.45"/>
<polygon fill="#63b8ff" stroke="#63b8ff" points="272.52,-135.39 264.01,-129.08 266.73,-139.32 272.52,-135.39"/>
</a>
</g>
</g>
<!-- Node3&#45;&gt;Node3 -->
<g id="edge4_Node000003_Node000003" class="edge">
<title>Node3&#45;&gt;Node3</title>
<g id="a_edge4_Node000003_Node000003"><a xlink:title=" ">
<path fill="none" stroke="#63b8ff" d="M210.99,-74.08C198.09,-82.73 206.93,-92 237.5,-92 258.04,-92 268.77,-87.82 269.69,-82.45"/>
<polygon fill="#63b8ff" stroke="#63b8ff" points="272.52,-80.39 264.01,-74.08 266.73,-84.32 272.52,-80.39"/>
</a>
</g>
</g>
<!-- Node654&#45;&gt;Node654 -->
<g id="edge7_Node000654_Node000654" class="edge">
<title>Node654&#45;&gt;Node654</title>
<g id="a_edge7_Node000654_Node000654"><a xlink:title=" ">
<path fill="none" stroke="#63b8ff" d="M210.99,-19.08C198.09,-27.73 206.93,-37 237.5,-37 258.04,-37 268.77,-32.82 269.69,-27.45"/>
<polygon fill="#63b8ff" stroke="#63b8ff" points="272.52,-25.39 264.01,-19.08 266.73,-29.32 272.52,-25.39"/>
</a>
</g>
</g>
</g>
</svg>
</svg>

<style type='text/css'>
<![CDATA[
[data-mouse-over-selected='false'] { opacity: 0.7; }
[data-mouse-over-selected='true']  { opacity: 1.0; }
]]>
</style>
</svg>
