<?xml version="1.0" encoding="UTF-8" standalone="no"?>
<!DOCTYPE svg PUBLIC "-//W3C//DTD SVG 1.1//EN"
 "http://www.w3.org/Graphics/SVG/1.1/DTD/svg11.dtd">
<!-- Generated by graphviz version 2.43.0 (0)
 -->
<!-- Title: R_UpdateFog Pages: 1 -->
<svg width="264pt" height="100pt"
 viewBox="0.00 0.00 264.00 100.00" xmlns="http://www.w3.org/2000/svg" xmlns:xlink="http://www.w3.org/1999/xlink">

<svg id="main" version="1.1" xmlns="http://www.w3.org/2000/svg" xmlns:xlink="http://www.w3.org/1999/xlink" xml:space="preserve">

<style type="text/css"><![CDATA[
.node, .edge {opacity: 0.7;}
.node.selected, .edge.selected {opacity: 1;}
.edge:hover path { stroke: red; }
.edge:hover polygon { stroke: red; fill: red; }
]]></style>
<script type="application/ecmascript" xlink:href="svg.min.js"/>
<svg id="graph" class="graph">
<g id="graph0" class="graph" transform="scale(1 1) rotate(0) translate(4 96)">
<title>R_UpdateFog</title>
<!-- Node1 -->
<g id="Node000001" class="node">
<title>Node1</title>
<g id="a_Node000001"><a xlink:title=" ">
<polygon fill="#999999" stroke="#666666" points="81,-46 0,-46 0,-27 81,-27 81,-46"/>
<text text-anchor="middle" x="40.5" y="-34" font-family="Helvetica,sans-Serif" font-size="10.00">R_UpdateFog</text>
</a>
</g>
</g>
<!-- Node1&#45;&gt;Node1 -->
<g id="edge5_Node000001_Node000001" class="edge">
<title>Node1&#45;&gt;Node1</title>
<g id="a_edge5_Node000001_Node000001"><a xlink:title=" ">
<path fill="none" stroke="#63b8ff" d="M18,-46.08C7.05,-54.73 14.55,-64 40.5,-64 57.12,-64 66.18,-60.2 67.66,-55.19"/>
<polygon fill="#63b8ff" stroke="#63b8ff" points="70.67,-53.39 63,-46.08 64.44,-56.58 70.67,-53.39"/>
</a>
</g>
</g>
<!-- Node2 -->
<g id="Node000002" class="node">
<title>Node2</title>
<g id="a_Node000002"><a xlink:href="gl__rmain_8c.html#adfb6975bcca6aca461150e84b3895454" target="_top" xlink:title=" ">
<polygon fill="#fff0f0" stroke="red" points="256,-74 117,-74 117,-55 256,-55 256,-74"/>
<text text-anchor="middle" x="186.5" y="-62" font-family="Helvetica,sans-Serif" font-size="10.00">R_BuildFogHeightTexture</text>
</a>
</g>
</g>
<!-- Node1&#45;&gt;Node2 -->
<g id="edge1_Node000001_Node000002" class="edge">
<title>Node1&#45;&gt;Node2</title>
<g id="a_edge1_Node000001_Node000002"><a xlink:title=" ">
<path fill="none" stroke="#63b8ff" d="M81.23,-44.23C95.23,-46.95 111.28,-50.07 126.53,-53.03"/>
<polygon fill="#63b8ff" stroke="#63b8ff" points="125.91,-56.48 136.4,-54.95 127.25,-49.61 125.91,-56.48"/>
</a>
</g>
</g>
<!-- Node1349 -->
<g id="Node001349" class="node">
<title>Node1349</title>
<g id="a_Node001349"><a xlink:href="gl__rmain_8c.html#abbc565cc79b5d144c53ba4a4a81353e2" target="_top" xlink:title=" ">
<polygon fill="#fff0f0" stroke="red" points="240,-19 133,-19 133,0 240,0 240,-19"/>
<text text-anchor="middle" x="186.5" y="-7" font-family="Helvetica,sans-Serif" font-size="10.00">R_BuildFogTexture</text>
</a>
</g>
</g>
<!-- Node1&#45;&gt;Node1349 -->
<g id="edge3_Node000001_Node001349" class="edge">
<title>Node1&#45;&gt;Node1349</title>
<g id="a_edge3_Node000001_Node001349"><a xlink:title=" ">
<path fill="none" stroke="#63b8ff" d="M81.23,-29.05C94.69,-26.53 110.05,-23.65 124.76,-20.89"/>
<polygon fill="#63b8ff" stroke="#63b8ff" points="125.63,-24.29 134.81,-19 124.34,-17.41 125.63,-24.29"/>
</a>
</g>
</g>
<!-- Node2&#45;&gt;Node2 -->
<g id="edge2_Node000002_Node000002" class="edge">
<title>Node2&#45;&gt;Node2</title>
<g id="a_edge2_Node000002_Node000002"><a xlink:title=" ">
<path fill="none" stroke="#63b8ff" d="M164,-74.08C153.05,-82.73 160.55,-92 186.5,-92 203.12,-92 212.18,-88.2 213.66,-83.19"/>
<polygon fill="#63b8ff" stroke="#63b8ff" points="216.67,-81.39 209,-74.08 210.44,-84.58 216.67,-81.39"/>
</a>
</g>
</g>
<!-- Node1349&#45;&gt;Node1349 -->
<g id="edge4_Node001349_Node001349" class="edge">
<title>Node1349&#45;&gt;Node1349</title>
<g id="a_edge4_Node001349_Node001349"><a xlink:title=" ">
<path fill="none" stroke="#63b8ff" d="M164,-19.08C153.05,-27.73 160.55,-37 186.5,-37 203.12,-37 212.18,-33.2 213.66,-28.19"/>
<polygon fill="#63b8ff" stroke="#63b8ff" points="216.67,-26.39 209,-19.08 210.44,-29.58 216.67,-26.39"/>
</a>
</g>
</g>
</g>
</svg>
</svg>

<style type='text/css'>
<![CDATA[
[data-mouse-over-selected='false'] { opacity: 0.7; }
[data-mouse-over-selected='true']  { opacity: 1.0; }
]]>
</style>
</svg>
