<?xml version="1.0" encoding="UTF-8" standalone="no"?>
<!DOCTYPE svg PUBLIC "-//W3C//DTD SVG 1.1//EN"
 "http://www.w3.org/Graphics/SVG/1.1/DTD/svg11.dtd">
<!-- Generated by graphviz version 2.43.0 (0)
 -->
<!-- Title: S_StartSound_StartPosition_Flags Pages: 1 -->
<svg width="467pt" height="343pt"
 viewBox="0.00 0.00 467.00 343.00" xmlns="http://www.w3.org/2000/svg" xmlns:xlink="http://www.w3.org/1999/xlink">
<g id="page0,1_graph0" class="graph" transform="scale(1 1) rotate(0) translate(4 339)">
<title>S_StartSound_StartPosition_Flags</title>
<!-- Node1 -->
<g id="Node000001" class="node">
<title>Node1</title>
<g id="a_Node000001"><a xlink:title=" ">
<polygon fill="#999999" stroke="#666666" points="149,-190.5 0,-190.5 0,-160.5 149,-160.5 149,-190.5"/>
<text text-anchor="start" x="8" y="-178.5" font-family="Helvetica,sans-Serif" font-size="10.00">S_StartSound_StartPosition</text>
<text text-anchor="middle" x="74.5" y="-167.5" font-family="Helvetica,sans-Serif" font-size="10.00">_Flags</text>
</a>
</g>
</g>
<!-- Node1&#45;&gt;Node1 -->
<g id="edge13_Node000001_Node000001" class="edge">
<title>Node1&#45;&gt;Node1</title>
<g id="a_edge13_Node000001_Node000001"><a xlink:title=" ">
<path fill="none" stroke="#63b8ff" d="M44.97,-190.78C38.41,-199.91 48.25,-208.5 74.5,-208.5 90.09,-208.5 99.89,-205.47 103.91,-201.1"/>
<polygon fill="#63b8ff" stroke="#63b8ff" points="107.41,-200.82 104.03,-190.78 100.41,-200.73 107.41,-200.82"/>
</a>
</g>
</g>
<!-- Node2 -->
<g id="Node000002" class="node">
<title>Node2</title>
<g id="a_Node000002"><a xlink:href="menudefs_8qc.html#accccfae161879454243b3a8695a9bf3b" target="_top" xlink:title=" ">
<polygon fill="white" stroke="#666666" points="263,-317 225,-317 225,-298 263,-298 263,-317"/>
<text text-anchor="middle" x="244" y="-305" font-family="Helvetica,sans-Serif" font-size="10.00">fabs</text>
</a>
</g>
</g>
<!-- Node1&#45;&gt;Node2 -->
<g id="edge1_Node000001_Node000002" class="edge">
<title>Node1&#45;&gt;Node2</title>
<g id="a_edge1_Node000001_Node000002"><a xlink:title=" ">
<path fill="none" stroke="#63b8ff" d="M87.51,-190.62C106.24,-213.39 144.5,-256.65 185,-283.5 194.26,-289.64 205.35,-294.7 215.34,-298.56"/>
<polygon fill="#63b8ff" stroke="#63b8ff" points="214.26,-301.89 224.86,-302.02 216.66,-295.31 214.26,-301.89"/>
</a>
</g>
</g>
<!-- Node3 -->
<g id="Node000003" class="node">
<title>Node3</title>
<g id="a_Node000003"><a xlink:href="snd__main_8c.html#af465a50cc8fe4cf04c50678152c9bfb3" target="_top" xlink:title=" ">
<polygon fill="#fff0f0" stroke="red" points="303,-223 185,-223 185,-204 303,-204 303,-223"/>
<text text-anchor="middle" x="244" y="-211" font-family="Helvetica,sans-Serif" font-size="10.00">S_PlaySfxOnChannel</text>
</a>
</g>
</g>
<!-- Node1&#45;&gt;Node3 -->
<g id="edge3_Node000001_Node000003" class="edge">
<title>Node1&#45;&gt;Node3</title>
<g id="a_edge3_Node000001_Node000003"><a xlink:title=" ">
<path fill="none" stroke="#63b8ff" d="M141.7,-190.52C158.05,-194.23 175.34,-198.15 190.91,-201.68"/>
<polygon fill="#63b8ff" stroke="#63b8ff" points="190.35,-205.14 200.87,-203.94 191.9,-198.32 190.35,-205.14"/>
</a>
</g>
</g>
<!-- Node1335 -->
<g id="Node001335" class="node">
<title>Node1335</title>
<g id="a_Node001335"><a xlink:href="snd__main_8c.html#ad535acb572368de09bae1e49dbb42686" target="_top" xlink:title=" ">
<polygon fill="white" stroke="#666666" points="455.5,-269 342.5,-269 342.5,-250 455.5,-250 455.5,-269"/>
<text text-anchor="middle" x="399" y="-257" font-family="Helvetica,sans-Serif" font-size="10.00">S_SetChannelSpeed</text>
</a>
</g>
</g>
<!-- Node1&#45;&gt;Node1335 -->
<g id="edge11_Node000001_Node001335" class="edge">
<title>Node1&#45;&gt;Node1335</title>
<g id="a_edge11_Node000001_Node001335"><a xlink:title=" ">
<path fill="none" stroke="#63b8ff" d="M91.33,-190.7C111.32,-208.77 147.62,-238.05 185,-250.5 232.47,-266.3 289.19,-267.93 332.16,-265.94"/>
<polygon fill="#63b8ff" stroke="#63b8ff" points="332.42,-269.43 342.22,-265.4 332.04,-262.44 332.42,-269.43"/>
</a>
</g>
</g>
<!-- Node1336 -->
<g id="Node001336" class="node">
<title>Node1336</title>
<g id="a_Node001336"><a xlink:href="snd__main_8c.html#a37d4ed14b0b2cfb37ac5e35c9699138e" target="_top" xlink:title=" ">
<polygon fill="white" stroke="#666666" points="459,-204 339,-204 339,-185 459,-185 459,-204"/>
<text text-anchor="middle" x="399" y="-192" font-family="Helvetica,sans-Serif" font-size="10.00">S_SetChannelVolume</text>
</a>
</g>
</g>
<!-- Node1&#45;&gt;Node1336 -->
<g id="edge12_Node000001_Node001336" class="edge">
<title>Node1&#45;&gt;Node1336</title>
<g id="a_edge12_Node000001_Node001336"><a xlink:title=" ">
<path fill="none" stroke="#63b8ff" d="M149.08,-179.84C203.02,-183.01 275.77,-187.3 328.68,-190.42"/>
<polygon fill="#63b8ff" stroke="#63b8ff" points="328.8,-193.93 338.99,-191.02 329.21,-186.94 328.8,-193.93"/>
</a>
</g>
</g>
<!-- Node94 -->
<g id="Node000094" class="node">
<title>Node94</title>
<g id="a_Node000094"><a xlink:href="snd__main_8c.html#ab16d95df142e5569687863559c471eeb" target="_top" xlink:title=" ">
<polygon fill="white" stroke="#666666" points="296,-129 192,-129 192,-110 296,-110 296,-129"/>
<text text-anchor="middle" x="244" y="-117" font-family="Helvetica,sans-Serif" font-size="10.00">S_SetChannelFlag</text>
</a>
</g>
</g>
<!-- Node1&#45;&gt;Node94 -->
<g id="edge9_Node000001_Node000094" class="edge">
<title>Node1&#45;&gt;Node94</title>
<g id="a_edge9_Node000001_Node000094"><a xlink:title=" ">
<path fill="none" stroke="#63b8ff" d="M120.39,-160.49C146.82,-151.66 179.89,-140.6 205.03,-132.2"/>
<polygon fill="#63b8ff" stroke="#63b8ff" points="206.21,-135.49 214.58,-129 203.99,-128.85 206.21,-135.49"/>
</a>
</g>
</g>
<!-- Node1348 -->
<g id="Node001348" class="node">
<title>Node1348</title>
<g id="a_Node001348"><a xlink:href="snd__main_8c.html#af83aa89f4385066b0ad824396b64e110" target="_top" xlink:title=" ">
<polygon fill="#fff0f0" stroke="red" points="295.5,-74 192.5,-74 192.5,-55 295.5,-55 295.5,-74"/>
<text text-anchor="middle" x="244" y="-62" font-family="Helvetica,sans-Serif" font-size="10.00">SND_PickChannel</text>
</a>
</g>
</g>
<!-- Node1&#45;&gt;Node1348 -->
<g id="edge14_Node000001_Node001348" class="edge">
<title>Node1&#45;&gt;Node1348</title>
<g id="a_edge14_Node000001_Node001348"><a xlink:title=" ">
<path fill="none" stroke="#63b8ff" d="M97.12,-160.27C119.07,-144.9 154.12,-120.64 185,-100.5 195.9,-93.39 208.12,-85.75 218.53,-79.35"/>
<polygon fill="#63b8ff" stroke="#63b8ff" points="220.42,-82.3 227.12,-74.09 216.77,-76.33 220.42,-82.3"/>
</a>
</g>
</g>
<!-- Node1349 -->
<g id="Node001349" class="node">
<title>Node1349</title>
<g id="a_Node001349"><a xlink:href="snd__main_8c.html#a9e958c65d6367f2dc735e4999218b2a1" target="_top" xlink:title=" ">
<polygon fill="#fff0f0" stroke="red" points="289.5,-19 198.5,-19 198.5,0 289.5,0 289.5,-19"/>
<text text-anchor="middle" x="244" y="-7" font-family="Helvetica,sans-Serif" font-size="10.00">SND_Spatialize</text>
</a>
</g>
</g>
<!-- Node1&#45;&gt;Node1349 -->
<g id="edge16_Node000001_Node001349" class="edge">
<title>Node1&#45;&gt;Node1349</title>
<g id="a_edge16_Node000001_Node001349"><a xlink:title=" ">
<path fill="none" stroke="#63b8ff" d="M85.98,-160.13C104.07,-134.33 143.27,-81.6 185,-45.5 194.26,-37.49 205.5,-30.08 215.61,-24.09"/>
<polygon fill="#63b8ff" stroke="#63b8ff" points="217.54,-27.01 224.49,-19.01 214.07,-20.94 217.54,-27.01"/>
</a>
</g>
</g>
<!-- Node2&#45;&gt;Node2 -->
<g id="edge2_Node000002_Node000002" class="edge">
<title>Node2&#45;&gt;Node2</title>
<g id="a_edge2_Node000002_Node000002"><a xlink:title=" ">
<path fill="none" stroke="#63b8ff" d="M224.78,-314.27C207.21,-323.59 213.62,-335 244,-335 267.73,-335 276.84,-328.03 271.31,-320.54"/>
<polygon fill="#63b8ff" stroke="#63b8ff" points="273.27,-317.63 263.22,-314.27 268.98,-323.16 273.27,-317.63"/>
</a>
</g>
</g>
<!-- Node3&#45;&gt;Node3 -->
<g id="edge4_Node000003_Node000003" class="edge">
<title>Node3&#45;&gt;Node3</title>
<g id="a_edge4_Node000003_Node000003"><a xlink:title=" ">
<path fill="none" stroke="#63b8ff" d="M220.26,-223.08C208.72,-231.73 216.63,-241 244,-241 261.96,-241 271.54,-237.01 272.75,-231.82"/>
<polygon fill="#63b8ff" stroke="#63b8ff" points="275.75,-230.02 267.74,-223.08 269.67,-233.5 275.75,-230.02"/>
</a>
</g>
</g>
<!-- Node3&#45;&gt;Node1335 -->
<g id="edge5_Node000003_Node001335" class="edge">
<title>Node3&#45;&gt;Node1335</title>
<g id="a_edge5_Node000003_Node001335"><a xlink:title=" ">
<path fill="none" stroke="#63b8ff" d="M276.7,-223.03C299.88,-230 331.54,-239.52 356.7,-247.08"/>
<polygon fill="#63b8ff" stroke="#63b8ff" points="355.75,-250.45 366.34,-249.98 357.77,-243.75 355.75,-250.45"/>
</a>
</g>
</g>
<!-- Node3&#45;&gt;Node1336 -->
<g id="edge7_Node000003_Node001336" class="edge">
<title>Node3&#45;&gt;Node1336</title>
<g id="a_edge7_Node000003_Node001336"><a xlink:title=" ">
<path fill="none" stroke="#63b8ff" d="M303.28,-206.26C311.66,-205.22 320.34,-204.14 328.9,-203.08"/>
<polygon fill="#63b8ff" stroke="#63b8ff" points="329.38,-206.55 338.87,-201.84 328.51,-199.6 329.38,-206.55"/>
</a>
</g>
</g>
<!-- Node1335&#45;&gt;Node1335 -->
<g id="edge6_Node001335_Node001335" class="edge">
<title>Node1335&#45;&gt;Node1335</title>
<g id="a_edge6_Node001335_Node001335"><a xlink:title=" ">
<path fill="none" stroke="#63b8ff" d="M375.26,-269.08C363.72,-277.73 371.63,-287 399,-287 416.96,-287 426.54,-283.01 427.75,-277.82"/>
<polygon fill="#63b8ff" stroke="#63b8ff" points="430.75,-276.02 422.74,-269.08 424.67,-279.5 430.75,-276.02"/>
</a>
</g>
</g>
<!-- Node1336&#45;&gt;Node1336 -->
<g id="edge8_Node001336_Node001336" class="edge">
<title>Node1336&#45;&gt;Node1336</title>
<g id="a_edge8_Node001336_Node001336"><a xlink:title=" ">
<path fill="none" stroke="#63b8ff" d="M375.26,-204.08C363.72,-212.73 371.63,-222 399,-222 416.96,-222 426.54,-218.01 427.75,-212.82"/>
<polygon fill="#63b8ff" stroke="#63b8ff" points="430.75,-211.02 422.74,-204.08 424.67,-214.5 430.75,-211.02"/>
</a>
</g>
</g>
<!-- Node94&#45;&gt;Node94 -->
<g id="edge10_Node000094_Node000094" class="edge">
<title>Node94&#45;&gt;Node94</title>
<g id="a_edge10_Node000094_Node000094"><a xlink:title=" ">
<path fill="none" stroke="#63b8ff" d="M220.26,-129.08C208.72,-137.73 216.63,-147 244,-147 261.96,-147 271.54,-143.01 272.75,-137.82"/>
<polygon fill="#63b8ff" stroke="#63b8ff" points="275.75,-136.02 267.74,-129.08 269.67,-139.5 275.75,-136.02"/>
</a>
</g>
</g>
<!-- Node1348&#45;&gt;Node1348 -->
<g id="edge15_Node001348_Node001348" class="edge">
<title>Node1348&#45;&gt;Node1348</title>
<g id="a_edge15_Node001348_Node001348"><a xlink:title=" ">
<path fill="none" stroke="#63b8ff" d="M220.26,-74.08C208.72,-82.73 216.63,-92 244,-92 261.96,-92 271.54,-88.01 272.75,-82.82"/>
<polygon fill="#63b8ff" stroke="#63b8ff" points="275.75,-81.02 267.74,-74.08 269.67,-84.5 275.75,-81.02"/>
</a>
</g>
</g>
<!-- Node1349&#45;&gt;Node1349 -->
<g id="edge17_Node001349_Node001349" class="edge">
<title>Node1349&#45;&gt;Node1349</title>
<g id="a_edge17_Node001349_Node001349"><a xlink:title=" ">
<path fill="none" stroke="#63b8ff" d="M220.26,-19.08C208.72,-27.73 216.63,-37 244,-37 261.96,-37 271.54,-33.01 272.75,-27.82"/>
<polygon fill="#63b8ff" stroke="#63b8ff" points="275.75,-26.02 267.74,-19.08 269.67,-29.5 275.75,-26.02"/>
</a>
</g>
</g>
</g>
</svg>
