<?xml version="1.0" encoding="UTF-8" standalone="no"?>
<!DOCTYPE svg PUBLIC "-//W3C//DTD SVG 1.1//EN"
 "http://www.w3.org/Graphics/SVG/1.1/DTD/svg11.dtd">
<!-- Generated by graphviz version 2.43.0 (0)
 -->
<!-- Title: entityframe5_database_t Pages: 1 -->
<svg width="1231pt" height="481pt"
 viewBox="0.00 0.00 1231.28 481.00" xmlns="http://www.w3.org/2000/svg" xmlns:xlink="http://www.w3.org/1999/xlink">
<g id="page0,1_graph0" class="graph" transform="scale(1 1) rotate(0) translate(4 477)">
<title>entityframe5_database_t</title>
<!-- Node1 -->
<g id="Node000001" class="node">
<title>Node1</title>
<g id="a_Node000001"><a xlink:title=" ">
<polygon fill="#999999" stroke="#666666" points="582.28,-19 442.28,-19 442.28,0 582.28,0 582.28,-19"/>
<text text-anchor="middle" x="512.28" y="-7" font-family="Helvetica,sans-Serif" font-size="10.00">entityframe5_database_t</text>
</a>
</g>
</g>
<!-- Node2 -->
<g id="Node000002" class="node">
<title>Node2</title>
<g id="a_Node000002"><a xlink:title=" ">
<polygon fill="white" stroke="#666666" points="653.78,-473 624.78,-473 624.78,-454 653.78,-454 653.78,-473"/>
<text text-anchor="middle" x="639.28" y="-461" font-family="Helvetica,sans-Serif" font-size="10.00">int</text>
</a>
</g>
</g>
<!-- Node2&#45;&gt;Node1 -->
<g id="edge1_Node000001_Node000002" class="edge">
<title>Node2&#45;&gt;Node1</title>
<g id="a_edge1_Node000001_Node000002"><a xlink:title=" ">
<path fill="none" stroke="#9a32cd" stroke-dasharray="5,2" d="M638.58,-443.7C636.63,-402.32 629.65,-300.54 606.28,-219 594.25,-177.01 533.48,-53.21 516.62,-19.22"/>
<polygon fill="#9a32cd" stroke="#9a32cd" points="635.09,-444.06 639.01,-453.91 642.08,-443.77 635.09,-444.06"/>
</a>
</g>
<text text-anchor="start" x="603.28" y="-190" font-family="Helvetica,sans-Serif" font-size="10.00" fill="grey">deltabits</text>
<text text-anchor="start" x="603.28" y="-175" font-family="Helvetica,sans-Serif" font-size="10.00" fill="grey">latestframenum</text>
<text text-anchor="start" x="603.28" y="-160" font-family="Helvetica,sans-Serif" font-size="10.00" fill="grey">maxedicts</text>
<text text-anchor="start" x="603.28" y="-145" font-family="Helvetica,sans-Serif" font-size="10.00" fill="grey">prioritychaincounts</text>
<text text-anchor="start" x="603.28" y="-130" font-family="Helvetica,sans-Serif" font-size="10.00" fill="grey">updateframenum</text>
<text text-anchor="start" x="603.28" y="-115" font-family="Helvetica,sans-Serif" font-size="10.00" fill="grey">viewentnum</text>
</g>
<!-- Node3 -->
<g id="Node000003" class="node">
<title>Node3</title>
<g id="a_Node000003"><a xlink:href="structentityframe5__packetlog__t.html" target="_top" xlink:title=" ">
<polygon fill="white" stroke="#666666" points="354.28,-91 212.28,-91 212.28,-72 354.28,-72 354.28,-91"/>
<text text-anchor="middle" x="283.28" y="-79" font-family="Helvetica,sans-Serif" font-size="10.00">entityframe5_packetlog_t</text>
</a>
</g>
</g>
<!-- Node2&#45;&gt;Node3 -->
<g id="edge3_Node000003_Node000002" class="edge">
<title>Node2&#45;&gt;Node3</title>
<g id="a_edge3_Node000003_Node000002"><a xlink:title=" ">
<path fill="none" stroke="#9a32cd" stroke-dasharray="5,2" d="M614.37,-463.36C560.92,-463.76 434.67,-456.7 368.28,-386 316.31,-330.65 353.15,-292 332.28,-219 318.23,-169.86 295.65,-112.82 286.91,-91.31"/>
<polygon fill="#9a32cd" stroke="#9a32cd" points="614.69,-466.86 624.63,-463.18 614.57,-459.86 614.69,-466.86"/>
</a>
</g>
<text text-anchor="start" x="371.28" y="-307.5" font-family="Helvetica,sans-Serif" font-size="10.00" fill="grey">numstates</text>
<text text-anchor="start" x="371.28" y="-292.5" font-family="Helvetica,sans-Serif" font-size="10.00" fill="grey">packetnumber</text>
</g>
<!-- Node6 -->
<g id="Node000006" class="node">
<title>Node6</title>
<g id="a_Node000006"><a xlink:href="structentity__state__t.html" target="_top" xlink:title=" ">
<polygon fill="white" stroke="#666666" points="784.28,-91 700.28,-91 700.28,-72 784.28,-72 784.28,-91"/>
<text text-anchor="middle" x="742.28" y="-79" font-family="Helvetica,sans-Serif" font-size="10.00">entity_state_t</text>
</a>
</g>
</g>
<!-- Node2&#45;&gt;Node6 -->
<g id="edge11_Node000006_Node000002" class="edge">
<title>Node2&#45;&gt;Node6</title>
<g id="a_edge11_Node000006_Node000002"><a xlink:title=" ">
<path fill="none" stroke="#9a32cd" stroke-dasharray="5,2" d="M643.35,-443.65C652.32,-402.58 674.87,-302.04 698.28,-219 712.06,-170.11 731.82,-112.46 739.28,-91.06"/>
<polygon fill="#9a32cd" stroke="#9a32cd" points="639.89,-443.08 641.19,-453.59 646.73,-444.56 639.89,-443.08"/>
</a>
</g>
<text text-anchor="start" x="701.28" y="-299.5" font-family="Helvetica,sans-Serif" font-size="10.00" fill="grey">effects</text>
</g>
<!-- Node9 -->
<g id="Node000009" class="node">
<title>Node9</title>
<g id="a_Node000009"><a xlink:href="structframegroupblend__t.html" target="_top" xlink:title=" ">
<polygon fill="white" stroke="#666666" points="899.28,-312 789.28,-312 789.28,-293 899.28,-293 899.28,-312"/>
<text text-anchor="middle" x="844.28" y="-300" font-family="Helvetica,sans-Serif" font-size="10.00">framegroupblend_t</text>
</a>
</g>
</g>
<!-- Node2&#45;&gt;Node9 -->
<g id="edge14_Node000009_Node000002" class="edge">
<title>Node2&#45;&gt;Node9</title>
<g id="a_edge14_Node000009_Node000002"><a xlink:title=" ">
<path fill="none" stroke="#9a32cd" stroke-dasharray="5,2" d="M662.39,-448.68C682.74,-436.61 713.26,-418.76 740.28,-404 755.63,-395.61 761.62,-396.93 775.28,-386 803.28,-363.61 828.09,-328.4 838.75,-312.19"/>
<polygon fill="#9a32cd" stroke="#9a32cd" points="660.34,-445.82 653.54,-453.94 663.92,-451.84 660.34,-445.82"/>
</a>
</g>
<text text-anchor="start" x="743.28" y="-417" font-family="Helvetica,sans-Serif" font-size="10.00" fill="grey">frame</text>
</g>
<!-- Node3&#45;&gt;Node1 -->
<g id="edge2_Node000001_Node000003" class="edge">
<title>Node3&#45;&gt;Node1</title>
<g id="a_edge2_Node000001_Node000003"><a xlink:title=" ">
<path fill="none" stroke="#9a32cd" stroke-dasharray="5,2" d="M320.95,-68.99C366.85,-54.96 443.35,-31.57 484.33,-19.04"/>
<polygon fill="#9a32cd" stroke="#9a32cd" points="319.9,-65.65 311.36,-71.92 321.95,-72.34 319.9,-65.65"/>
</a>
</g>
<text text-anchor="start" x="428.28" y="-42.5" font-family="Helvetica,sans-Serif" font-size="10.00" fill="grey">packetlog</text>
</g>
<!-- Node4 -->
<g id="Node000004" class="node">
<title>Node4</title>
<g id="a_Node000004"><a xlink:href="structentityframe5__changestate__t.html" target="_top" xlink:title=" ">
<polygon fill="white" stroke="#666666" points="208.78,-312 53.78,-312 53.78,-293 208.78,-293 208.78,-312"/>
<text text-anchor="middle" x="131.28" y="-300" font-family="Helvetica,sans-Serif" font-size="10.00">entityframe5_changestate_t</text>
</a>
</g>
</g>
<!-- Node4&#45;&gt;Node3 -->
<g id="edge4_Node000003_Node000004" class="edge">
<title>Node4&#45;&gt;Node3</title>
<g id="a_edge4_Node000003_Node000004"><a xlink:title=" ">
<path fill="none" stroke="#9a32cd" stroke-dasharray="5,2" d="M131.91,-282.51C134.23,-244.15 144.96,-157.01 194.28,-109 202.83,-100.68 213.87,-94.95 225.25,-91.02"/>
<polygon fill="#9a32cd" stroke="#9a32cd" points="128.4,-282.6 131.43,-292.75 135.4,-282.93 128.4,-282.6"/>
</a>
</g>
<text text-anchor="start" x="197.78" y="-152" font-family="Helvetica,sans-Serif" font-size="10.00" fill="grey">states</text>
</g>
<!-- Node5 -->
<g id="Node000005" class="node">
<title>Node5</title>
<g id="a_Node000005"><a xlink:title=" ">
<polygon fill="white" stroke="#666666" points="218.78,-473 157.78,-473 157.78,-454 218.78,-454 218.78,-473"/>
<text text-anchor="middle" x="188.28" y="-461" font-family="Helvetica,sans-Serif" font-size="10.00">unsigned</text>
</a>
</g>
</g>
<!-- Node5&#45;&gt;Node1 -->
<g id="edge7_Node000001_Node000005" class="edge">
<title>Node5&#45;&gt;Node1</title>
<g id="a_edge7_Node000001_Node000005"><a xlink:title=" ">
<path fill="none" stroke="#9a32cd" stroke-dasharray="5,2" d="M147.88,-453.32C113.62,-443.17 66.58,-423.1 44.28,-386 -19.4,-280.06 -16.09,-198.39 69.28,-109 119.82,-56.08 330.25,-28.1 441.93,-16.73"/>
<polygon fill="#9a32cd" stroke="#9a32cd" points="147.05,-456.72 157.62,-456.05 148.93,-449.98 147.05,-456.72"/>
</a>
</g>
<text text-anchor="start" x="72.78" y="-167" font-family="Helvetica,sans-Serif" font-size="10.00" fill="grey">priorities</text>
<text text-anchor="start" x="72.78" y="-152" font-family="Helvetica,sans-Serif" font-size="10.00" fill="grey">prioritychains</text>
<text text-anchor="start" x="72.78" y="-137" font-family="Helvetica,sans-Serif" font-size="10.00" fill="grey">visiblebits</text>
</g>
<!-- Node5&#45;&gt;Node3 -->
<g id="edge6_Node000003_Node000005" class="edge">
<title>Node5&#45;&gt;Node3</title>
<g id="a_edge6_Node000003_Node000005"><a xlink:title=" ">
<path fill="none" stroke="#9a32cd" stroke-dasharray="5,2" d="M215.55,-448.36C220.09,-444.89 224.29,-440.77 227.28,-436 279.08,-353.41 243.73,-315.24 259.28,-219 267.11,-170.54 277.7,-112.64 281.68,-91.11"/>
<polygon fill="#9a32cd" stroke="#9a32cd" points="213.59,-445.46 207.2,-453.92 217.46,-451.29 213.59,-445.46"/>
</a>
</g>
<text text-anchor="start" x="262.78" y="-299.5" font-family="Helvetica,sans-Serif" font-size="10.00" fill="grey">statsdeltabits</text>
</g>
<!-- Node5&#45;&gt;Node4 -->
<g id="edge5_Node000004_Node000005" class="edge">
<title>Node5&#45;&gt;Node4</title>
<g id="a_edge5_Node000004_Node000005"><a xlink:title=" ">
<path fill="none" stroke="#9a32cd" stroke-dasharray="5,2" d="M181.75,-444.29C169.46,-409.99 143.31,-337.06 134.36,-312.09"/>
<polygon fill="#9a32cd" stroke="#9a32cd" points="178.55,-445.72 185.22,-453.95 185.14,-443.36 178.55,-445.72"/>
</a>
</g>
<text text-anchor="start" x="182.28" y="-425" font-family="Helvetica,sans-Serif" font-size="10.00" fill="grey">bits</text>
<text text-anchor="start" x="182.28" y="-410" font-family="Helvetica,sans-Serif" font-size="10.00" fill="grey">number</text>
</g>
<!-- Node5&#45;&gt;Node6 -->
<g id="edge12_Node000006_Node000005" class="edge">
<title>Node5&#45;&gt;Node6</title>
<g id="a_edge12_Node000006_Node000005"><a xlink:title=" ">
<path fill="none" stroke="#9a32cd" stroke-dasharray="5,2" d="M228.99,-460.99C284.44,-456.81 383.71,-441.48 444.28,-386 541.96,-296.53 450.16,-190.88 554.28,-109 576.24,-91.73 651.54,-85.71 699.92,-83.62"/>
<polygon fill="#9a32cd" stroke="#9a32cd" points="228.59,-457.51 218.84,-461.67 229.05,-464.49 228.59,-457.51"/>
</a>
</g>
<text text-anchor="start" x="502.28" y="-374.5" font-family="Helvetica,sans-Serif" font-size="10.00" fill="grey">active</text>
<text text-anchor="start" x="502.28" y="-359.5" font-family="Helvetica,sans-Serif" font-size="10.00" fill="grey">alpha</text>
<text text-anchor="start" x="502.28" y="-344.5" font-family="Helvetica,sans-Serif" font-size="10.00" fill="grey">colormap</text>
<text text-anchor="start" x="502.28" y="-329.5" font-family="Helvetica,sans-Serif" font-size="10.00" fill="grey">colormod</text>
<text text-anchor="start" x="502.28" y="-314.5" font-family="Helvetica,sans-Serif" font-size="10.00" fill="grey">customizeentityforclient</text>
<text text-anchor="start" x="502.28" y="-299.5" font-family="Helvetica,sans-Serif" font-size="10.00" fill="grey">drawonlytoclient</text>
<text text-anchor="start" x="502.28" y="-284.5" font-family="Helvetica,sans-Serif" font-size="10.00" fill="grey">exteriormodelforclient</text>
<text text-anchor="start" x="502.28" y="-269.5" font-family="Helvetica,sans-Serif" font-size="10.00" fill="grey">flags</text>
<text text-anchor="start" x="502.28" y="-254.5" font-family="Helvetica,sans-Serif" font-size="10.00" fill="grey">frame</text>
<text text-anchor="start" x="502.28" y="-239.5" font-family="Helvetica,sans-Serif" font-size="10.00" fill="grey">glowcolor</text>
<text text-anchor="start" x="502.28" y="-224.5" font-family="Helvetica,sans-Serif" font-size="10.00" fill="grey"> &#160;...</text>
</g>
<!-- Node6&#45;&gt;Node1 -->
<g id="edge8_Node000001_Node000006" class="edge">
<title>Node6&#45;&gt;Node1</title>
<g id="a_edge8_Node000001_Node000006"><a xlink:title=" ">
<path fill="none" stroke="#9a32cd" stroke-dasharray="5,2" d="M704.45,-68.99C658.35,-54.96 581.52,-31.57 540.36,-19.04"/>
<polygon fill="#9a32cd" stroke="#9a32cd" points="703.49,-72.35 714.08,-71.92 705.53,-65.66 703.49,-72.35"/>
</a>
</g>
<text text-anchor="start" x="658.78" y="-42.5" font-family="Helvetica,sans-Serif" font-size="10.00" fill="grey">states</text>
</g>
<!-- Node7 -->
<g id="Node000007" class="node">
<title>Node7</title>
<g id="a_Node000007"><a xlink:title=" ">
<polygon fill="white" stroke="#666666" points="791.28,-473 741.28,-473 741.28,-454 791.28,-454 791.28,-473"/>
<text text-anchor="middle" x="766.28" y="-461" font-family="Helvetica,sans-Serif" font-size="10.00">double</text>
</a>
</g>
</g>
<!-- Node7&#45;&gt;Node6 -->
<g id="edge9_Node000006_Node000007" class="edge">
<title>Node7&#45;&gt;Node6</title>
<g id="a_edge9_Node000006_Node000007"><a xlink:title=" ">
<path fill="none" stroke="#9a32cd" stroke-dasharray="5,2" d="M761.72,-443.79C758.18,-428.38 753.51,-405.91 751.28,-386 738.3,-270.23 741.03,-128.16 742.01,-91.48"/>
<polygon fill="#9a32cd" stroke="#9a32cd" points="758.34,-444.7 764.05,-453.62 765.15,-443.09 758.34,-444.7"/>
</a>
</g>
<text text-anchor="start" x="754.78" y="-299.5" font-family="Helvetica,sans-Serif" font-size="10.00" fill="grey">time</text>
</g>
<!-- Node7&#45;&gt;Node9 -->
<g id="edge16_Node000009_Node000007" class="edge">
<title>Node7&#45;&gt;Node9</title>
<g id="a_edge16_Node000009_Node000007"><a xlink:title=" ">
<path fill="none" stroke="#9a32cd" stroke-dasharray="5,2" d="M775,-444.73C791.73,-410.63 827.77,-337.16 840.07,-312.09"/>
<polygon fill="#9a32cd" stroke="#9a32cd" points="771.74,-443.43 770.48,-453.95 778.02,-446.52 771.74,-443.43"/>
</a>
</g>
<text text-anchor="start" x="797.78" y="-417" font-family="Helvetica,sans-Serif" font-size="10.00" fill="grey">start</text>
</g>
<!-- Node8 -->
<g id="Node000008" class="node">
<title>Node8</title>
<g id="a_Node000008"><a xlink:title=" ">
<polygon fill="white" stroke="#666666" points="905.28,-473 867.28,-473 867.28,-454 905.28,-454 905.28,-473"/>
<text text-anchor="middle" x="886.28" y="-461" font-family="Helvetica,sans-Serif" font-size="10.00">float</text>
</a>
</g>
</g>
<!-- Node8&#45;&gt;Node6 -->
<g id="edge10_Node000006_Node000008" class="edge">
<title>Node8&#45;&gt;Node6</title>
<g id="a_edge10_Node000006_Node000008"><a xlink:title=" ">
<path fill="none" stroke="#9a32cd" stroke-dasharray="5,2" d="M902.88,-445.9C905.09,-442.83 907.03,-439.48 908.28,-436 932.98,-367.59 944.52,-161.6 894.28,-109 879.53,-93.55 824.15,-87.07 784.5,-84.37"/>
<polygon fill="#9a32cd" stroke="#9a32cd" points="900.04,-443.83 896.25,-453.72 905.38,-448.36 900.04,-443.83"/>
</a>
</g>
<text text-anchor="start" x="933.78" y="-314.5" font-family="Helvetica,sans-Serif" font-size="10.00" fill="grey">angles</text>
<text text-anchor="start" x="933.78" y="-299.5" font-family="Helvetica,sans-Serif" font-size="10.00" fill="grey">netcenter</text>
<text text-anchor="start" x="933.78" y="-284.5" font-family="Helvetica,sans-Serif" font-size="10.00" fill="grey">origin</text>
</g>
<!-- Node8&#45;&gt;Node9 -->
<g id="edge15_Node000009_Node000008" class="edge">
<title>Node8&#45;&gt;Node9</title>
<g id="a_edge15_Node000009_Node000008"><a xlink:title=" ">
<path fill="none" stroke="#9a32cd" stroke-dasharray="5,2" d="M881.35,-443.84C872.25,-409.36 853.12,-336.95 846.55,-312.09"/>
<polygon fill="#9a32cd" stroke="#9a32cd" points="878.09,-445.18 884.02,-453.95 884.85,-443.39 878.09,-445.18"/>
</a>
</g>
<text text-anchor="start" x="882.78" y="-417" font-family="Helvetica,sans-Serif" font-size="10.00" fill="grey">lerp</text>
</g>
<!-- Node9&#45;&gt;Node6 -->
<g id="edge13_Node000006_Node000009" class="edge">
<title>Node9&#45;&gt;Node6</title>
<g id="a_edge13_Node000006_Node000009"><a xlink:title=" ">
<path fill="none" stroke="#9a32cd" stroke-dasharray="5,2" d="M836.42,-283.4C821.43,-249.09 787.47,-172.37 756.28,-109 753.34,-103.02 749.84,-96.4 747.08,-91.27"/>
<polygon fill="#9a32cd" stroke="#9a32cd" points="833.39,-285.21 840.59,-292.98 839.81,-282.41 833.39,-285.21"/>
</a>
</g>
<text text-anchor="start" x="802.78" y="-152" font-family="Helvetica,sans-Serif" font-size="10.00" fill="grey">framegroupblend</text>
</g>
<!-- Node10 -->
<g id="Node000010" class="node">
<title>Node10</title>
<g id="a_Node000010"><a xlink:href="structskeleton__t.html" target="_top" xlink:title=" ">
<polygon fill="white" stroke="#666666" points="1073.78,-312 1006.78,-312 1006.78,-293 1073.78,-293 1073.78,-312"/>
<text text-anchor="middle" x="1040.28" y="-300" font-family="Helvetica,sans-Serif" font-size="10.00">skeleton_t</text>
</a>
</g>
</g>
<!-- Node10&#45;&gt;Node6 -->
<g id="edge17_Node000006_Node000010" class="edge">
<title>Node10&#45;&gt;Node6</title>
<g id="a_edge17_Node000006_Node000010"><a xlink:title=" ">
<path fill="none" stroke="#9a32cd" stroke-dasharray="5,2" d="M1037.45,-282.66C1030.44,-243.19 1008.35,-151.91 949.28,-109 923.78,-90.47 837.32,-84.89 784.54,-83.21"/>
<polygon fill="#9a32cd" stroke="#9a32cd" points="1034.03,-283.44 1039.11,-292.74 1040.94,-282.31 1034.03,-283.44"/>
</a>
</g>
<text text-anchor="start" x="1018.28" y="-152" font-family="Helvetica,sans-Serif" font-size="10.00" fill="grey">skeletonobject</text>
</g>
<!-- Node11 -->
<g id="Node000011" class="node">
<title>Node11</title>
<g id="a_Node000011"><a xlink:title=" ">
<polygon fill="white" stroke="#666666" points="1067.28,-473 941.28,-473 941.28,-454 1067.28,-454 1067.28,-473"/>
<text text-anchor="middle" x="1004.28" y="-461" font-family="Helvetica,sans-Serif" font-size="10.00">const struct model_s *</text>
</a>
</g>
</g>
<!-- Node11&#45;&gt;Node10 -->
<g id="edge18_Node000010_Node000011" class="edge">
<title>Node11&#45;&gt;Node10</title>
<g id="a_edge18_Node000010_Node000011"><a xlink:title=" ">
<path fill="none" stroke="#9a32cd" stroke-dasharray="5,2" d="M1008.51,-443.84C1016.31,-409.36 1032.71,-336.95 1038.34,-312.09"/>
<polygon fill="#9a32cd" stroke="#9a32cd" points="1005.01,-443.43 1006.22,-453.95 1011.84,-444.97 1005.01,-443.43"/>
</a>
</g>
<text text-anchor="start" x="1020.78" y="-417" font-family="Helvetica,sans-Serif" font-size="10.00" fill="grey">model</text>
</g>
<!-- Node12 -->
<g id="Node000012" class="node">
<title>Node12</title>
<g id="a_Node000012"><a xlink:title=" ">
<polygon fill="white" stroke="#666666" points="1201.28,-473 1085.28,-473 1085.28,-454 1201.28,-454 1201.28,-473"/>
<text text-anchor="middle" x="1143.28" y="-461" font-family="Helvetica,sans-Serif" font-size="10.00">struct matrix4x4_s *</text>
</a>
</g>
</g>
<!-- Node12&#45;&gt;Node10 -->
<g id="edge19_Node000010_Node000012" class="edge">
<title>Node12&#45;&gt;Node10</title>
<g id="a_edge19_Node000010_Node000012"><a xlink:title=" ">
<path fill="none" stroke="#9a32cd" stroke-dasharray="5,2" d="M1132.05,-445.17C1110.09,-411.26 1062.16,-337.27 1045.85,-312.09"/>
<polygon fill="#9a32cd" stroke="#9a32cd" points="1129.37,-447.46 1137.74,-453.95 1135.24,-443.66 1129.37,-447.46"/>
</a>
</g>
<text text-anchor="start" x="1129.78" y="-417" font-family="Helvetica,sans-Serif" font-size="10.00" fill="grey">relativetransforms</text>
</g>
</g>
</svg>
